<svg width="48" height="44" viewBox="0 0 48 44" fill="none" xmlns="http://www.w3.org/2000/svg">
<path d="M30.6096 17.1111C32.9292 17.1111 34.8096 19.0263 34.8096 21.3889V32.9976C34.8096 39.074 29.9731 44 24.0072 44C18.0411 44 13.2046 39.074 13.2046 32.9976V21.3889C13.2046 19.0263 15.085 17.1111 17.4046 17.1111H30.6096ZM30.6096 20.7778H17.4046C17.0733 20.7778 16.8046 21.0513 16.8046 21.3889V32.9976C16.8046 37.049 20.0292 40.3333 24.0072 40.3333C27.985 40.3333 31.2096 37.049 31.2096 32.9976V21.3889C31.2096 21.0513 30.941 20.7778 30.6096 20.7778ZM4.2 17.1111L12.3151 17.1088C11.491 18.1243 10.9542 19.3906 10.8315 20.7783L4.2 20.7778C3.86863 20.7778 3.6 21.0513 3.6 21.3889V29.3304C3.6 32.7072 6.28762 35.4444 9.60298 35.4444C10.083 35.4444 10.5498 35.387 10.9972 35.2787C11.2005 36.5105 11.5717 37.6853 12.0837 38.7787C11.2938 38.9962 10.4616 39.1111 9.60298 39.1111C4.29941 39.1111 0 34.7321 0 29.3304V21.3889C0 19.0263 1.8804 17.1111 4.2 17.1111ZM35.6993 17.1088L43.8 17.1111C46.1196 17.1111 48 19.0263 48 21.3889V29.3333C48 34.7334 43.7018 39.1111 38.4 39.1111C37.5446 39.1111 36.7152 38.9972 35.9258 38.7833C36.4416 37.6877 36.8131 36.5129 37.02 35.2809C37.4621 35.3882 37.9246 35.4444 38.4 35.4444C41.7137 35.4444 44.4 32.7084 44.4 29.3333V21.3889C44.4 21.0513 44.1314 20.7778 43.8 20.7778L37.1827 20.7783C37.0601 19.3906 36.5232 18.1243 35.6993 17.1088ZM24 0C27.9766 0 31.2 3.28326 31.2 7.33333C31.2 11.3834 27.9766 14.6667 24 14.6667C20.0234 14.6667 16.8 11.3834 16.8 7.33333C16.8 3.28326 20.0234 0 24 0ZM39.6 2.44444C42.9137 2.44444 45.6 5.18049 45.6 8.55556C45.6 11.9306 42.9137 14.6667 39.6 14.6667C36.2863 14.6667 33.6 11.9306 33.6 8.55556C33.6 5.18049 36.2863 2.44444 39.6 2.44444ZM8.4 2.44444C11.7137 2.44444 14.4 5.18049 14.4 8.55556C14.4 11.9306 11.7137 14.6667 8.4 14.6667C5.0863 14.6667 2.4 11.9306 2.4 8.55556C2.4 5.18049 5.0863 2.44444 8.4 2.44444ZM24 3.66667C22.0118 3.66667 20.4 5.30828 20.4 7.33333C20.4 9.35838 22.0118 11 24 11C25.9882 11 27.6 9.35838 27.6 7.33333C27.6 5.30828 25.9882 3.66667 24 3.66667ZM39.6 6.11111C38.2745 6.11111 37.2 7.20554 37.2 8.55556C37.2 9.90557 38.2745 11 39.6 11C40.9255 11 42 9.90557 42 8.55556C42 7.20554 40.9255 6.11111 39.6 6.11111ZM8.4 6.11111C7.07453 6.11111 6 7.20554 6 8.55556C6 9.90557 7.07453 11 8.4 11C9.72547 11 10.8 9.90557 10.8 8.55556C10.8 7.20554 9.72547 6.11111 8.4 6.11111Z" fill="#1A7ABB"/>
</svg>
