<svg width="48" height="48" viewBox="0 0 48 48" fill="none" xmlns="http://www.w3.org/2000/svg">
<path d="M45.0069 22.5035C45.0069 10.0751 34.9318 0 22.5035 0C10.0751 0 0 10.0751 0 22.5035C0 34.9318 10.0751 45.0069 22.5035 45.0069C23.7158 45.0069 24.9058 44.911 26.0661 44.7265C25.275 43.494 24.8534 42.1226 24.7699 40.737C24.0364 41.3189 23.2719 41.6319 22.5035 41.6319C19.9081 41.6319 17.358 38.0598 15.8909 32.6278L30.6658 32.6274C29.9796 31.6432 29.5122 30.4953 29.3343 29.2537H15.1644C14.8188 27.1605 14.625 24.8874 14.625 22.5035C14.625 20.9496 14.7073 19.4428 14.8604 18.0022H30.1465C30.2995 19.4428 30.3819 20.9496 30.3819 22.5035C30.3819 23.0464 30.372 23.5835 30.3524 24.114C31.146 22.7769 32.3241 21.6946 33.7341 21.0198C33.7026 19.9947 33.6383 18.9872 33.5433 18.0021L41.0988 18.0001C41.3832 19.1789 41.5585 20.4002 41.6134 21.6528C43.1144 22.6943 44.236 24.2443 44.7285 26.0538C44.9117 24.8973 45.0069 23.7115 45.0069 22.5035ZM6.27158 32.6289L12.3972 32.6292L12.6254 33.5179C13.3386 36.1491 14.3083 38.4582 15.4835 40.3028C11.6531 38.7908 8.42785 36.0782 6.27158 32.6289ZM3.90908 18.002H11.4637C11.323 19.4588 11.25 20.9645 11.25 22.5035C11.25 24.8493 11.4197 27.1178 11.7399 29.2533L4.60026 29.2542C3.80833 27.1549 3.375 24.8799 3.375 22.5035C3.375 20.9667 3.55619 19.4725 3.89837 18.0408L3.90908 18.002ZM15.4343 4.72369L15.4858 4.70407C13.86 7.25164 12.6296 10.685 11.9246 14.6288L5.06633 14.6279C7.10181 10.1282 10.8279 6.55679 15.4343 4.72369ZM22.2432 3.38693L22.5035 3.375L22.7877 3.3892C25.6263 3.67263 28.3652 8.16995 29.6389 14.6278H15.3681C16.6455 8.1518 19.396 3.64736 22.2432 3.38693ZM29.7638 5.09591L29.5235 4.70421L30.1787 4.97707C34.5054 6.87456 37.9952 10.3273 39.9405 14.6279L33.0823 14.6288C32.4129 10.8837 31.2697 7.59897 29.7638 5.09591ZM42.7544 28.1274C42.7544 31.2339 40.236 33.7524 37.1294 33.7524C34.0228 33.7524 31.5044 31.2339 31.5044 28.1274C31.5044 25.0208 34.0228 22.5024 37.1294 22.5024C40.236 22.5024 42.7544 25.0208 42.7544 28.1274ZM47.2544 40.2211C47.2544 43.7232 44.3616 47.2524 37.1294 47.2524C29.8972 47.2524 27.0044 43.7365 27.0044 40.2211V39.9894C27.0044 37.7864 28.7902 36.0024 30.993 36.0024H43.2658C45.4686 36.0024 47.2544 37.7864 47.2544 39.9894V40.2211Z" fill="#25BEB6"/>
</svg>
