<svg width="10" height="13" viewBox="0 0 10 13" fill="none" xmlns="http://www.w3.org/2000/svg">
<path d="M8.59374 0C9.338 0 9.94725 0.571821 9.99675 1.29546L10 1.39068V10.9697C10 11.7057 9.42175 12.3082 8.68999 12.3572L8.59374 12.3603H1.40626C0.661967 12.3603 0.0527253 11.7886 0.0032437 11.0649L0 10.9697V1.39068C0 0.654625 0.578229 0.052135 1.30998 0.00320791L1.40626 0H8.59374ZM5.15509 6.79658H2.34373L2.28012 6.80085C2.05132 6.8315 1.87497 7.02546 1.87497 7.26014C1.87497 7.49483 2.05132 7.68878 2.28012 7.7195L2.34373 7.7237H5.15509L5.21866 7.7195C5.44747 7.68878 5.62385 7.49483 5.62385 7.26014C5.62385 7.02546 5.44747 6.8315 5.21866 6.80085L5.15509 6.79658ZM7.65624 4.94319H2.34373L2.28012 4.94742C2.05132 4.97814 1.87497 5.17209 1.87497 5.40677C1.87497 5.64146 2.05132 5.83535 2.28012 5.86607L2.34373 5.87033H7.65624L7.71986 5.86607C7.94867 5.83535 8.12499 5.64146 8.12499 5.40677C8.12499 5.17209 7.94867 4.97814 7.71986 4.94742L7.65624 4.94319ZM7.65624 3.08979H2.34373L2.28012 3.09402C2.05132 3.12472 1.87497 3.31866 1.87497 3.55335C1.87497 3.78803 2.05132 3.98198 2.28012 4.01267L2.34373 4.01691H7.65624L7.71986 4.01267C7.94867 3.98198 8.12499 3.78803 8.12499 3.55335C8.12499 3.31866 7.94867 3.12472 7.71986 3.09402L7.65624 3.08979Z" fill="#CCCCCC"/>
</svg>
