<svg width="12" height="10" viewBox="0 0 12 10" fill="none" xmlns="http://www.w3.org/2000/svg">
<path d="M0 2.77092V1.8011C0 0.806375 0.85769 0 1.91571 0H3.61255C3.9643 0 4.30163 0.131369 4.55036 0.365212L5.45241 1.2133L3.92515 2.64918C3.84224 2.72713 3.72979 2.77092 3.61255 2.77092H0ZM0 3.60219V8.1742C0 9.16891 0.85769 9.9753 1.91571 9.9753H9.87328C10.9313 9.9753 11.789 9.16891 11.789 8.1742V3.18655C11.789 2.19183 10.9313 1.38546 9.87328 1.38546H6.51972L4.55036 3.23698C4.30163 3.47082 3.9643 3.60219 3.61255 3.60219H0Z" fill="#E8CA67"/>
</svg>
