<svg width="83" height="82" viewBox="0 0 83 82" fill="none" xmlns="http://www.w3.org/2000/svg">
<path d="M10.2505 11.8668C10.2505 7.2001 14.162 3.33344 18.8828 3.33344C23.6036 3.33344 27.5147 7.2001 27.5147 11.8668C27.5147 16.5334 23.6036 20.4001 18.8828 20.4001C14.0271 20.4001 10.2505 16.5334 10.2505 11.8668ZM23.8735 22.6668C27.9199 20.8001 30.8869 16.6668 30.8869 11.8668C30.8869 5.33344 25.4923 0.00010252 18.8828 0.00010252C12.274 0.00010252 6.87867 5.33344 6.87867 11.8668C6.87867 16.6668 9.71094 20.8001 13.8923 22.6668C5.93494 24.5334 0 30.8001 0 38.2668V52.6668C0 53.6001 0.808932 54.4001 1.7532 54.4001H8.63173V79.8668C8.63173 80.8001 9.4412 81.6001 10.3855 81.6001C11.3292 81.6001 12.1391 80.8001 12.1391 79.8668V47.6001C12.1391 46.6668 11.3292 45.8668 10.3855 45.8668C9.4412 45.8668 8.63173 46.6668 8.63173 47.6001V50.9334H3.50627V38.1334C3.50627 31.0668 10.3855 25.3334 19.0177 25.3334C27.5147 25.3334 34.5287 31.0668 34.5287 38.1334V50.9334H29.4036V47.6001C29.4036 46.6668 28.5943 45.8668 27.65 45.8668C26.7057 45.8668 25.8964 46.6668 25.8964 47.6001V79.8668C25.8964 80.8001 26.7057 81.6001 27.65 81.6001C28.5943 81.6001 29.4036 80.8001 29.4036 79.8668V54.4001H36.2823C37.2265 54.4001 38.036 53.6001 38.036 52.6668V38.2668C37.7661 30.8001 31.8313 24.5334 23.8735 22.6668Z" fill="black"/>
<path d="M17.1299 37.467H20.5012V40.8003H17.1299V37.467Z" fill="black"/>
<path d="M71.6211 75.2001L64.7411 62.9334H78.9038C78.3651 68.0001 75.5318 72.4001 71.6211 75.2001ZM44.5095 61.2001C44.5095 52.4001 51.2545 45.2001 60.0211 44.2668V61.2001C60.0211 61.4668 60.0211 61.6001 60.1558 61.8668C60.1558 62.0001 59.6171 61.0668 68.5184 76.8001C66.4958 77.7334 64.0678 78.1334 61.7745 78.1334C52.3331 78.1334 44.5095 70.5334 44.5095 61.2001ZM78.9038 59.4668H63.5278V44.2668C71.6211 45.0668 78.0944 51.4668 78.9038 59.4668ZM61.7745 40.8001C50.4451 40.8001 41.1382 50.0001 41.1382 61.2001C41.1382 72.4001 50.4451 81.6001 61.7745 81.6001C73.1038 81.6001 82.4105 72.4001 82.4105 61.2001C82.4105 50.0001 73.1038 40.8001 61.7745 40.8001Z" fill="black"/>
<path d="M49.7704 11.8667H73.7784C74.7224 11.8667 75.5317 11.0667 75.5317 10.1334C75.5317 9.20003 74.7224 8.40003 73.7784 8.40003H49.7704C48.8264 8.40003 48.0171 9.20003 48.0171 10.1334C48.0171 11.2 48.8264 11.8667 49.7704 11.8667Z" fill="black"/>
<path d="M49.7704 22.1338H66.8997C67.8437 22.1338 68.6531 21.3338 68.6531 20.4005C68.6531 19.4671 67.8437 18.6671 66.8997 18.6671H49.7704C48.8264 18.6671 48.0171 19.4671 48.0171 20.4005C48.0171 21.3338 48.8264 22.1338 49.7704 22.1338Z" fill="black"/>
<path d="M49.7704 32.2671H73.7784C74.7224 32.2671 75.5317 31.4671 75.5317 30.5338C75.5317 29.6004 74.7224 28.8004 73.7784 28.8004H49.7704C48.8264 28.8004 48.0171 29.6004 48.0171 30.5338C48.0171 31.6004 48.8264 32.2671 49.7704 32.2671Z" fill="black"/>
</svg>
