<svg width="83" height="82" viewBox="0 0 83 82" fill="none" xmlns="http://www.w3.org/2000/svg">
<path d="M78.9036 76.1335C78.9036 77.2001 77.9596 78.1335 76.8809 78.1335H5.39534C4.31614 78.1335 3.37133 77.2001 3.37133 76.1335V29.2001C3.37133 28.1335 4.31614 27.2001 5.39534 27.2001H76.8809C77.9596 27.2001 78.9036 28.1335 78.9036 29.2001V76.1335ZM76.8809 23.8668H5.39534C2.4276 23.8668 0 26.2668 0 29.2001V76.1335C0 79.0668 2.4276 81.4668 5.39534 81.4668H76.8809C79.8476 81.4668 82.2756 79.0668 82.2756 76.1335V29.2001C82.4103 26.2668 79.9836 23.8668 76.8809 23.8668Z" fill="black"/>
<path d="M8.49739 18.9336C9.44112 18.9336 10.2504 18.1336 10.2504 17.2003C10.2504 16.0003 10.925 15.2003 11.5994 15.2003H70.8115C71.4849 15.2003 72.1595 16.0003 72.1595 17.2003C72.1595 18.1336 72.9689 18.9336 73.9129 18.9336C74.8569 18.9336 75.6662 18.1336 75.6662 17.2003C75.6662 14.2669 73.5089 11.8669 70.8115 11.8669H11.5994C8.90151 11.8669 6.74365 14.2669 6.74365 17.2003C6.74365 18.2669 7.55312 18.9336 8.49739 18.9336Z" fill="black"/>
<path d="M11.8693 7.06689C12.813 7.06689 13.6229 6.26689 13.6229 5.33356C13.6229 4.13356 14.2969 3.33356 14.7016 3.33356H67.5742C67.9782 3.33356 68.6529 4.13356 68.6529 5.33356C68.6529 6.26689 69.4622 7.06689 70.4062 7.06689C71.3502 7.06689 72.1596 6.26689 72.1596 5.33356C72.1596 2.26689 70.1369 0.000228286 67.7089 0.000228286H14.7016C12.139 0.000228286 10.2505 2.40023 10.2505 5.33356C10.2505 6.40023 10.925 7.06689 11.8693 7.06689Z" fill="black"/>
<path d="M15.376 57.7338C15.376 53.0671 19.2874 49.2004 24.0084 49.2004C28.7292 49.2004 32.6406 53.0671 32.6406 57.7338V62.8004H15.376V57.7338ZM18.748 40.8004C18.748 38.0004 21.0412 35.7338 23.8734 35.7338C26.7057 35.7338 28.9984 38.0004 28.9984 40.8004C28.9984 43.6004 26.7057 45.8671 23.8734 45.8671C21.0412 45.8671 18.748 43.6004 18.748 40.8004ZM13.6229 66.2671H34.2589C35.2032 66.2671 36.0125 65.4671 36.0125 64.5338V57.7338C36.0125 53.2004 33.4494 49.2004 29.538 47.2004C31.426 45.6004 32.5057 43.3338 32.5057 40.8004C32.5057 36.1338 28.5942 32.2671 23.8734 32.2671C19.1532 32.2671 15.2417 36.1338 15.2417 40.8004C15.2417 43.3338 16.4546 45.7338 18.2084 47.2004C14.4322 49.2004 11.7344 53.2004 11.7344 57.7338V64.5338C11.8693 65.4671 12.6781 66.2671 13.6229 66.2671Z" fill="black"/>
<path d="M70.4065 45.8668H42.8914C41.9477 45.8668 41.1382 46.6668 41.1382 47.6002C41.1382 48.5335 41.9477 49.3335 42.8914 49.3335H70.4065C71.3505 49.3335 72.1598 48.5335 72.1598 47.6002C72.0251 46.6668 71.3505 45.8668 70.4065 45.8668Z" fill="black"/>
<path d="M70.4065 56.1334H42.8914C41.9477 56.1334 41.1382 56.9334 41.1382 57.8668C41.1382 58.8001 41.9477 59.6001 42.8914 59.6001H70.4065C71.3505 59.6001 72.1598 58.8001 72.1598 57.8668C72.0251 56.8001 71.3505 56.1334 70.4065 56.1334Z" fill="black"/>
<path d="M70.4064 69.7335H11.8695C10.9252 69.7335 10.1157 70.5335 10.1157 71.4669C10.1157 72.4002 10.9252 73.2002 11.8695 73.2002H70.2717C71.2157 73.2002 72.0251 72.4002 72.0251 71.4669C72.0251 70.4002 71.3504 69.7335 70.4064 69.7335Z" fill="black"/>
<path d="M44.5093 35.7336H47.8822V39.0669H44.5093V35.7336Z" fill="black"/>
<path d="M54.8955 35.7336H58.2675V39.0669H54.8955V35.7336Z" fill="black"/>
<path d="M65.1465 35.7336H68.5185V39.0669H65.1465V35.7336Z" fill="black"/>
</svg>
