<svg width="83" height="82" viewBox="0 0 83 82" fill="none" xmlns="http://www.w3.org/2000/svg">
<path d="M34.2586 21.9999C34.2586 18.2666 37.3599 15.1999 41.1372 15.1999C44.9132 15.1999 48.0159 18.2666 48.0159 21.9999C48.0159 25.7333 44.9132 28.7999 41.1372 28.7999C37.3599 28.7999 34.2586 25.7333 34.2586 21.9999ZM47.3412 30.1333C49.7692 28.2666 51.3879 25.3333 51.3879 21.9999C51.3879 16.3999 46.8012 11.8666 41.1372 11.8666C35.4719 11.8666 30.8866 16.3999 30.8866 21.9999C30.8866 25.3333 32.5039 28.2666 34.9332 30.1333C29.5372 32.5333 25.7612 37.8666 25.7612 44.1333V57.7332C25.7612 58.6666 26.5692 59.4666 27.5132 59.4666H32.6399V79.8666C32.6399 80.7999 33.4479 81.5999 34.3919 81.5999C35.3359 81.5999 36.1466 80.7999 36.1466 79.8666V52.5332C36.1466 51.5999 35.3359 50.7999 34.3919 50.7999C33.4479 50.7999 32.6399 51.5999 32.6399 52.5332V55.9999H29.2679V43.9999C29.2679 37.4666 34.6626 32.1333 41.2719 32.1333C47.8812 32.1333 53.2759 37.4666 53.2759 43.9999V55.9999H49.9039V52.6666C49.9039 51.7332 49.0946 50.9332 48.1506 50.9332C47.2066 50.9332 46.3972 51.7332 46.3972 52.6666V79.8666C46.3972 80.7999 47.2066 81.5999 48.1506 81.5999C49.0946 81.5999 49.9039 80.7999 49.9039 79.8666V59.3332H55.0292C55.9732 59.3332 56.7826 58.5332 56.7826 57.5999V43.9999C56.6479 37.8666 52.8719 32.3999 47.3412 30.1333Z" fill="black"/>
<path d="M41.1371 64.3999C40.1931 64.3999 39.3838 65.1999 39.3838 66.1333V79.7333C39.3838 80.6666 40.1931 81.4666 41.1371 81.4666C42.0811 81.4666 42.8891 80.6666 42.8891 79.7333V66.1333C42.8891 65.1999 42.0811 64.3999 41.1371 64.3999Z" fill="black"/>
<path d="M22.2548 3.33333C26.0308 3.33333 29.1321 6.4 29.1321 10.1333C29.1321 13.8667 26.0308 16.9333 22.2548 16.9333C18.4774 16.9333 15.3761 13.8667 15.3761 10.1333C15.3761 6.4 18.4774 3.33333 22.2548 3.33333ZM22.2548 20.2667C27.9188 20.2667 32.5041 15.7333 32.5041 10.1333C32.5041 4.53333 27.9188 -2.86102e-06 22.2548 -2.86102e-06C16.5894 -2.86102e-06 12.0028 4.53333 12.0028 10.1333C11.8681 15.7333 16.5894 20.2667 22.2548 20.2667Z" fill="black"/>
<path d="M60.0202 3.33333C63.7962 3.33333 66.8988 6.4 66.8988 10.1333C66.8988 13.8667 63.7962 16.9333 60.0202 16.9333C56.2428 16.9333 53.1415 13.8667 53.1415 10.1333C53.1415 6.4 56.2428 3.33333 60.0202 3.33333ZM60.0202 20.2667C65.6855 20.2667 70.2708 15.7333 70.2708 10.1333C70.2708 4.53333 65.6855 -2.86102e-06 60.0202 -2.86102e-06C54.3548 -2.86102e-06 49.7695 4.53333 49.7695 10.1333C49.7695 15.7333 54.3548 20.2667 60.0202 20.2667Z" fill="black"/>
<path d="M19.6904 54.2666C18.7464 54.2666 17.9385 55.0666 17.9385 55.9999V79.7333C17.9385 80.6666 18.7464 81.4666 19.6904 81.4666C20.6358 81.4666 21.4451 80.6666 21.4451 79.7333V55.9999C21.3091 55.0666 20.6358 54.2666 19.6904 54.2666Z" fill="black"/>
<path d="M13.6215 66.1333C12.6775 66.1333 11.8682 66.9333 11.8682 67.8666V79.7333C11.8682 80.6666 12.6775 81.4666 13.6215 81.4666C14.5655 81.4666 15.3762 80.6666 15.3762 79.7333V67.8666C15.3762 66.9333 14.5655 66.1333 13.6215 66.1333Z" fill="black"/>
<path d="M13.6213 34.9333C10.3853 34.9333 7.82266 32.4 7.82266 29.2C7.82266 26 10.3853 23.4666 13.6213 23.4666C16.8586 23.4666 19.4213 26 19.4213 29.2C19.4213 32.4 16.8586 34.9333 13.6213 34.9333ZM13.6213 20C8.49729 20 4.44935 24.1333 4.44935 29.2C4.44935 32 5.79866 34.5333 7.82266 36.2666C3.23599 38.3999 0 43.1999 0 48.5333V60.3999C0 61.3333 0.807953 62.1333 1.75195 62.1333H6.06797V79.7333C6.06797 80.6666 6.87866 81.4666 7.82266 81.4666C8.76666 81.4666 9.57467 80.6666 9.57467 79.7333V55.9999C9.57467 55.0666 8.76666 54.2666 7.82266 54.2666C6.87866 54.2666 6.06797 55.0666 6.06797 55.9999V58.6666H3.50534V48.5333C3.50534 42.9333 8.09196 38.3999 13.7573 38.3999C18.8826 38.3999 23.0626 34.2666 23.0626 29.3333C22.928 24.1333 18.7466 20 13.6213 20Z" fill="black"/>
<path d="M62.8519 29.2C62.8519 26 65.4146 23.4666 68.6519 23.4666C71.8893 23.4666 74.4519 26 74.4519 29.2C74.4519 32.4 71.8893 34.9333 68.6519 34.9333C65.4146 34.9333 62.8519 32.4 62.8519 29.2ZM74.4519 36.2666C76.4746 34.5333 77.8239 32 77.8239 29.2C77.8239 24.1333 73.6426 20.1333 68.6519 20.1333C63.5266 20.1333 59.48 24.2666 59.48 29.2C59.48 34.2666 63.6626 38.2666 68.6519 38.2666C74.3173 38.2666 78.9026 42.7999 78.9026 48.3999V58.6666H76.3399V55.9999C76.3399 55.0666 75.5306 54.2666 74.5866 54.2666C73.6426 54.2666 72.8346 55.0666 72.8346 55.9999V79.7333C72.8346 80.6666 73.6426 81.4666 74.5866 81.4666C75.5306 81.4666 76.3399 80.6666 76.3399 79.7333V62.1333H80.6573C81.6013 62.1333 82.4093 61.3333 82.4093 60.3999V48.5333C82.4093 43.0666 79.1719 38.3999 74.4519 36.2666Z" fill="black"/>
<path d="M62.5825 54.2666C61.6385 54.2666 60.8291 55.0666 60.8291 55.9999V79.7333C60.8291 80.6666 61.6385 81.4666 62.5825 81.4666C63.5265 81.4666 64.3358 80.6666 64.3358 79.7333V55.9999C64.3358 55.0666 63.5265 54.2666 62.5825 54.2666Z" fill="black"/>
<path d="M68.6518 66.1333C67.7078 66.1333 66.8984 66.9333 66.8984 67.8666V79.7333C66.8984 80.6666 67.7078 81.4666 68.6518 81.4666C69.5971 81.4666 70.4051 80.6666 70.4051 79.7333V67.8666C70.4051 66.9333 69.5971 66.1333 68.6518 66.1333Z" fill="black"/>
</svg>
