<svg width="43" height="22" viewBox="0 0 43 22" fill="none" xmlns="http://www.w3.org/2000/svg">
<path d="M0 21.221V18.4358C0 17.1684 0.64842 16.1368 1.94526 15.341C3.2421 14.5452 4.95157 14.1473 7.07367 14.1473C7.45683 14.1473 7.82525 14.1547 8.17893 14.1694C8.53262 14.1842 8.87156 14.221 9.19577 14.28C8.78314 14.8989 8.47367 15.5473 8.26735 16.2252C8.06104 16.9031 7.95788 17.6105 7.95788 18.3473V21.221H0ZM10.6105 21.221V18.3473C10.6105 17.4042 10.8684 16.5421 11.3842 15.761C11.9 14.98 12.6295 14.2947 13.5726 13.7052C14.5158 13.1158 15.6431 12.6737 16.9547 12.3789C18.2663 12.0842 19.6884 11.9368 21.221 11.9368C22.7831 11.9368 24.22 12.0842 25.5315 12.3789C26.8431 12.6737 27.9705 13.1158 28.9136 13.7052C29.8568 14.2947 30.5789 14.98 31.0799 15.761C31.581 16.5421 31.8315 17.4042 31.8315 18.3473V21.221H10.6105ZM34.4841 21.221V18.3473C34.4841 17.581 34.3884 16.8589 34.1968 16.181C34.0052 15.5031 33.7178 14.8694 33.3347 14.28C33.6589 14.221 33.9905 14.1842 34.3294 14.1694C34.6684 14.1547 35.0147 14.1473 35.3684 14.1473C37.4905 14.1473 39.1999 14.5379 40.4968 15.3189C41.7936 16.1 42.442 17.1389 42.442 18.4358V21.221H34.4841ZM14.3684 17.6842H28.1178C27.8231 17.0947 27.0052 16.5789 25.6642 16.1368C24.3231 15.6947 22.8421 15.4737 21.221 15.4737C19.6 15.4737 18.1189 15.6947 16.7779 16.1368C15.4368 16.5789 14.6337 17.0947 14.3684 17.6842ZM7.07367 12.3789C6.10104 12.3789 5.26841 12.0326 4.57578 11.34C3.88315 10.6473 3.53684 9.81472 3.53684 8.84209C3.53684 7.83999 3.88315 6.99999 4.57578 6.32209C5.26841 5.6442 6.10104 5.30525 7.07367 5.30525C8.07577 5.30525 8.91577 5.6442 9.59367 6.32209C10.2716 6.99999 10.6105 7.83999 10.6105 8.84209C10.6105 9.81472 10.2716 10.6473 9.59367 11.34C8.91577 12.0326 8.07577 12.3789 7.07367 12.3789ZM35.3684 12.3789C34.3957 12.3789 33.5631 12.0326 32.8705 11.34C32.1778 10.6473 31.8315 9.81472 31.8315 8.84209C31.8315 7.83999 32.1778 6.99999 32.8705 6.32209C33.5631 5.6442 34.3957 5.30525 35.3684 5.30525C36.3705 5.30525 37.2105 5.6442 37.8884 6.32209C38.5662 6.99999 38.9052 7.83999 38.9052 8.84209C38.9052 9.81472 38.5662 10.6473 37.8884 11.34C37.2105 12.0326 36.3705 12.3789 35.3684 12.3789ZM21.221 10.6105C19.7473 10.6105 18.4947 10.0947 17.4631 9.06314C16.4315 8.03156 15.9158 6.77893 15.9158 5.30525C15.9158 3.8021 16.4315 2.5421 17.4631 1.52526C18.4947 0.50842 19.7473 0 21.221 0C22.7242 0 23.9842 0.50842 25.001 1.52526C26.0178 2.5421 26.5263 3.8021 26.5263 5.30525C26.5263 6.77893 26.0178 8.03156 25.001 9.06314C23.9842 10.0947 22.7242 10.6105 21.221 10.6105ZM21.221 7.07367C21.7221 7.07367 22.1421 6.9042 22.481 6.56525C22.82 6.2263 22.9894 5.80631 22.9894 5.30525C22.9894 4.8042 22.82 4.3842 22.481 4.04526C22.1421 3.70631 21.7221 3.53684 21.221 3.53684C20.72 3.53684 20.3 3.70631 19.961 4.04526C19.6221 4.3842 19.4526 4.8042 19.4526 5.30525C19.4526 5.80631 19.6221 6.2263 19.961 6.56525C20.3 6.9042 20.72 7.07367 21.221 7.07367Z" fill="#140661"/>
</svg>
