<svg width="20" height="16" viewBox="0 0 20 16" fill="none" xmlns="http://www.w3.org/2000/svg">
<path d="M17.7454 0C18.988 0 19.9954 1.00736 19.9954 2.25V13.7546C19.9954 14.9972 18.988 16.0046 17.7454 16.0046H2.25C1.00736 16.0046 0 14.9972 0 13.7546V2.25C0 1.00736 1.00736 0 2.25 0H17.7454ZM17.7454 1.5H2.25C1.83579 1.5 1.5 1.83579 1.5 2.25V13.7546C1.5 14.1688 1.83579 14.5046 2.25 14.5046L4.999 14.504L5 11.75C5 10.8318 5.70711 10.0788 6.60647 10.0058L6.75 10H13.2447C14.1629 10 14.9159 10.7071 14.9889 11.6065L14.9947 11.75L14.994 14.504L17.7454 14.5046C18.1596 14.5046 18.4954 14.1688 18.4954 13.7546V2.25C18.4954 1.83579 18.1596 1.5 17.7454 1.5ZM10 3.00046C11.6569 3.00046 13 4.34361 13 6.0005C13 7.6573 11.6569 9.0005 10 9.0005C8.3431 9.0005 7 7.6573 7 6.0005C7 4.34361 8.3431 3.00046 10 3.00046Z" fill="white"/>
</svg>
