<svg width="22" height="11" viewBox="0 0 22 11" fill="none" xmlns="http://www.w3.org/2000/svg">
<line y1="6.5" x2="22" y2="6.5" stroke="black" stroke-dasharray="1 1"/>
<rect x="3.30005" y="1.1001" width="4.4" height="8.8" fill="white"/>
<path d="M4.43056 0.916667H6.56944C6.82257 0.916667 7.02778 1.12187 7.02778 1.375V2.44444H3.97222V1.375C3.97222 1.12187 4.17743 0.916667 4.43056 0.916667ZM3.05556 1.375V2.44444H1.98611C0.889209 2.44444 0 3.33365 0 4.43056V9.01389C0 10.1108 0.889209 11 1.98611 11H9.01389C10.1108 11 11 10.1108 11 9.01389V4.43056C11 3.33365 10.1108 2.44444 9.01389 2.44444H7.94444V1.375C7.94444 0.615609 7.32881 0 6.56944 0H4.43056C3.67116 0 3.05556 0.615609 3.05556 1.375ZM5.19444 5.34722C5.19444 5.0941 5.39966 4.88889 5.65278 4.88889C5.9059 4.88889 6.11111 5.0941 6.11111 5.34722V6.41667H7.18056C7.43368 6.41667 7.63889 6.62188 7.63889 6.875C7.63889 7.12812 7.43368 7.33333 7.18056 7.33333H6.11111V8.40278C6.11111 8.6559 5.9059 8.86111 5.65278 8.86111C5.39966 8.86111 5.19444 8.6559 5.19444 8.40278V7.33333H4.125C3.87187 7.33333 3.66667 7.12812 3.66667 6.875C3.66667 6.62188 3.87187 6.41667 4.125 6.41667H5.19444V5.34722Z" fill="#9C9C9C"/>
</svg>
