<svg width="94" height="31" viewBox="0 0 94 31" fill="none" xmlns="http://www.w3.org/2000/svg">
<path d="M18.2571 25.5678L9.76913 14.8835L17.9596 5H12.1943L4.39268 14.7691V5H0V25.5678H4.39268V14.9979L12.0341 25.5678H18.2571Z" fill="white"/>
<path d="M49.4176 13.0304C50.6988 13.0304 56.121 13.854 56.121 19.2304C56.121 24.9272 50.6531 25.5449 50.6531 25.5449H37.864V22.2275H48.1593C51.1335 22.2275 51.1106 19.3906 51.1106 19.3906C51.1106 16.2791 47.5873 16.3935 47.5873 16.3935C47.5873 16.3935 44.636 16.3935 43.6522 16.3935C41.8448 16.3935 37.1776 15.73 37.1776 10.9255C37.1776 5.13727 42.9659 5 42.9659 5H54.6797V8.29451H45.0707C41.9592 8.29451 42.005 10.6968 42.005 10.6968C42.005 10.6968 42.0279 13.0532 44.7275 13.0532L49.4176 13.0304Z" fill="white"/>
<path d="M31.0462 25.5678C34.1348 25.5678 36.9488 23.3028 36.9488 19.8253C36.9488 15.8444 34.0204 14.609 34.0204 14.609C34.0204 14.609 36.354 13.8082 36.1252 10.2392C35.8049 5.06864 29.9709 5 29.9709 5H18.646V25.5678C18.646 25.5678 28.438 25.5678 31.0462 25.5678ZM22.8099 8.34026H28.4838C28.4838 8.34026 31.5724 8.20299 31.5724 10.7654C31.5724 12.9617 29.6277 13.1219 29.01 13.1448H22.8328V8.34026H22.8099ZM27.9804 22.2275H22.8099V16.4393H29.1701C29.1701 16.4393 32.396 16.5537 32.396 19.2991C32.396 22.0216 29.9937 22.2275 27.9804 22.2275Z" fill="white"/>
<path d="M93.985 15.0213C93.9621 14.4264 93.9163 13.8316 93.8019 13.2139V13.191C93.6875 12.5504 93.5503 11.8869 93.3672 11.2463C93.0012 9.988 92.4521 8.70681 91.72 7.49424C89.6838 4.06246 86.6181 1.6831 83.4608 0.722201C83.4608 0.722201 76.2312 -1.68004 72.3419 2.27794C72.2732 2.34658 72.2046 2.43809 72.136 2.50673C69.6193 3.39899 67.4459 4.90897 65.8901 6.80789C64.6776 8.27211 63.8311 9.988 63.465 11.864C63.4421 12.0242 63.3506 12.4818 63.3506 12.5275C63.0532 14.2892 63.1218 15.7305 63.1218 15.7305C63.1218 15.7763 63.1218 15.8449 63.1218 15.8907C63.1447 17.149 63.3506 18.4531 63.7396 19.7343C64.1056 20.9926 64.6547 22.2738 65.3868 23.4863C67.4459 26.9181 70.4887 29.2975 73.646 30.2584C73.646 30.2584 80.8756 32.6606 84.7649 28.7026C84.8336 28.634 84.9022 28.5425 84.9708 28.4738C87.4875 27.5816 89.6609 26.0716 91.2167 24.1727C91.9488 23.2804 92.5436 22.3195 92.9783 21.29C93.9163 19.0937 94.0536 16.6685 93.985 15.0213ZM71.198 3.90232C72.4563 3.30747 73.8519 2.8499 75.4076 2.55248C77.7641 2.07203 80.0291 2.0034 82.111 2.27794C86.7325 2.89566 90.4846 5.20639 92.2462 8.72968C92.2691 8.75256 92.2691 8.79832 92.292 8.8212C92.3148 8.86695 92.292 8.88983 92.2691 8.91271C92.2462 8.93559 92.2004 8.91271 92.1547 8.86695C92.1318 8.84408 92.1089 8.79832 92.1089 8.77544C90.6676 6.51047 88.334 4.7717 85.497 3.76504C82.6372 2.75839 79.2283 2.48385 75.6593 3.12445C73.8519 3.44475 72.2504 3.97095 70.8548 4.65731C70.9692 4.40564 71.0836 4.15398 71.198 3.90232ZM70.5574 6.53335C71.9987 5.86987 73.5544 5.34366 75.1788 4.93185C80.418 3.62777 85.1539 4.26837 88.5399 6.21305C90.8964 7.56288 92.6123 9.53043 93.4359 11.9327C93.4588 11.9556 93.4588 12.0013 93.4588 12.0242C93.5045 12.1386 93.4588 12.1843 93.413 12.1843C93.3901 12.1843 93.3672 12.1843 93.3444 12.1386C93.3444 12.1157 93.3215 12.0928 93.3215 12.0471C92.5894 10.2625 91.3082 8.72968 89.6609 7.56288C86.2063 5.11488 81.0128 4.22262 75.1788 5.7326C73.5773 6.16729 72.0445 6.73925 70.626 7.40273C70.626 7.33409 70.6031 7.28834 70.6031 7.2197C70.5574 7.01379 70.5345 6.76213 70.5574 6.53335ZM85.886 27.0783C84.6276 27.6731 83.2321 28.1307 81.6763 28.4281C79.3198 28.9085 77.0549 28.9772 74.9729 28.7026C70.3515 28.0849 66.5994 25.7742 64.8377 22.2509C64.8148 22.228 64.8148 22.1823 64.792 22.1594C64.7691 22.1136 64.792 22.0907 64.8148 22.0679C64.8377 22.045 64.8835 22.0679 64.9292 22.1136C64.9521 22.1365 64.975 22.1823 64.975 22.2051C66.4163 24.4701 68.75 26.2089 71.5869 27.2155C74.4467 28.2222 77.8556 28.4967 81.4247 27.8561C83.2321 27.5358 84.8336 27.0096 86.2291 26.3233C86.1147 26.5521 86.0004 26.8266 85.886 27.0783ZM86.5494 24.4472C85.1081 25.1107 83.5524 25.6369 81.928 26.0487C76.6888 27.3528 71.9758 26.7122 68.5669 24.7675C66.2104 23.4177 64.4945 21.4501 63.6709 19.0479C63.6709 19.025 63.648 18.9793 63.648 18.9564C63.6023 18.842 63.648 18.7962 63.6938 18.7962C63.7167 18.7962 63.7396 18.7962 63.7624 18.842C63.7624 18.8649 63.7853 18.8877 63.7853 18.9335C64.5174 20.718 65.7986 22.2509 67.4459 23.4177C70.9005 25.8657 76.094 26.758 81.928 25.248C83.5295 24.8133 85.0623 24.2413 86.4808 23.5778C86.4808 23.6465 86.5037 23.6922 86.5037 23.7609C86.5266 23.9668 86.5494 24.1956 86.5494 24.4472ZM93.7562 15.3187C93.7333 15.3187 93.7104 15.2958 93.6875 15.2729C93.6875 15.2501 93.6647 15.2272 93.6647 15.2043C93.2529 13.6028 92.4292 12.2072 91.2624 11.0633C87.945 7.76879 81.9051 6.44183 75.5449 7.97469C75.0644 8.08909 74.584 8.22636 74.1264 8.38651C73.1198 8.70681 72.1589 9.09574 71.2437 9.53043C71.4496 9.89649 71.6784 10.2397 71.9301 10.5371C73.829 9.64482 75.9567 9.00423 78.1759 8.7068C79.663 8.5009 81.1272 8.47802 82.5228 8.61529C86.2978 8.95847 89.5694 10.4456 91.5827 12.6648C92.8639 14.0833 93.6189 15.822 93.6418 17.7896C93.6418 17.8353 93.6418 17.904 93.6418 17.9497C93.6418 17.9955 93.6418 18.0412 93.6418 18.087C93.6418 18.1556 93.596 18.1785 93.5503 18.1556C93.5274 18.1556 93.4816 18.1328 93.4816 18.1099C93.4816 18.0641 93.4588 18.0184 93.4588 17.9726C93.2529 16.4169 92.6123 15.0442 91.6742 13.8545C90.4159 12.2987 88.5856 11.109 86.3664 10.3769C83.7354 9.50755 80.5324 9.32452 77.1464 9.988C75.5678 10.2854 74.0807 10.743 72.6851 11.315C73.0511 11.6353 73.4629 11.9098 73.8976 12.1386C75.4534 11.4522 77.2379 10.9718 79.1826 10.7659C83.0033 10.3769 86.6181 11.1777 89.1805 12.7792C90.1642 13.3969 91.0108 14.129 91.6514 14.9755C92.5436 16.1194 93.0469 17.4464 93.0698 18.9106C93.0927 19.7343 92.9554 20.5121 92.6809 21.2671C92.6809 21.29 92.658 21.3129 92.658 21.3358C92.6351 21.3586 92.6123 21.3815 92.5894 21.3815C92.5665 21.3815 92.5436 21.3357 92.5436 21.29C92.5436 21.2671 92.5665 21.2442 92.5665 21.2214C92.7038 20.6036 92.7495 19.9859 92.6809 19.3453C92.5894 18.1785 92.1776 17.0803 91.4912 16.1194C91.3539 15.9135 91.1938 15.7076 91.0336 15.5246C88.5628 12.6419 83.6439 11.1319 78.4962 12.0928C77.5124 12.253 76.5973 12.4818 75.705 12.7563C76.5058 12.9393 77.3752 12.9851 78.2445 12.8707C78.2445 12.8707 79.6401 12.6877 80.235 12.5733C80.3494 12.5504 80.5324 12.5275 80.6239 12.5275H80.6697C81.4933 12.436 84.0557 12.2987 86.7554 13.2596C86.7554 13.2596 89.7753 14.2892 91.0794 16.5541C91.0794 16.5541 91.3768 16.966 90.9421 17.5608C90.5532 18.0641 90.0956 18.5674 89.638 19.0021C89.1805 19.4368 88.3797 19.9859 88.3797 19.9859C87.6476 20.4892 86.8697 20.9239 86.0461 21.3358V21.3129C85.9775 21.3357 85.9317 21.3815 85.8631 21.4044C85.8631 21.4044 85.8631 21.4044 85.8631 21.4273C85.886 21.473 85.9317 21.5417 85.9546 21.5874C86.0461 21.7933 86.1376 21.9992 86.2063 22.2051C84.8336 22.8686 83.3236 23.4177 81.745 23.8066C75.5906 25.3395 69.7566 24.2642 66.3248 21.2671C64.7233 19.8486 63.648 17.9955 63.3277 15.7991C63.3277 15.7534 63.3277 15.7305 63.3049 15.6848C63.3049 15.639 63.3277 15.6161 63.3506 15.6161C63.3735 15.6161 63.3964 15.639 63.4193 15.6619C63.4193 15.6848 63.4421 15.7076 63.4421 15.7305C63.8539 17.332 64.6776 18.7276 65.8444 19.8715C69.1618 23.166 75.2017 24.493 81.5619 22.9601C82.0424 22.8457 82.5228 22.7085 82.9804 22.5483C83.9871 22.228 84.9479 21.8391 85.8631 21.4044C85.6572 21.0383 85.4284 20.6952 85.1767 20.3977C83.3007 21.29 81.1501 21.9306 78.9309 22.228C77.4438 22.4339 75.9796 22.4568 74.584 22.3195C70.809 21.9763 67.5374 20.4892 65.5241 18.27C64.2429 16.8516 63.4879 15.1128 63.465 13.1452C63.465 13.0995 63.465 13.0308 63.465 12.9851C63.465 12.9393 63.465 12.8936 63.465 12.8478C63.465 12.7792 63.5336 12.7563 63.5565 12.7792C63.5794 12.7792 63.6252 12.8021 63.6252 12.8249C63.6252 12.8707 63.648 12.9165 63.648 12.9622C63.854 14.518 64.4945 15.8907 65.4326 17.0803C66.6909 18.6361 68.5212 19.8258 70.7404 20.5579C73.3714 21.4273 76.5744 21.6103 79.9604 20.9468C81.539 20.6494 83.0262 20.1918 84.4217 19.6199C84.0557 19.2996 83.6439 19.025 83.2092 18.7962C81.6534 19.4826 79.8689 19.963 77.9242 20.1689C74.0807 20.5579 70.4887 19.7571 67.9263 18.1556C66.9425 17.5379 66.096 16.7829 65.4554 15.9593C64.5632 14.8154 64.0599 13.4884 64.037 12.0242C64.0141 11.2006 64.1514 10.4227 64.4259 9.6677C64.4259 9.64482 64.4488 9.62195 64.4488 9.59907C64.4717 9.57619 64.4945 9.55331 64.5174 9.55331C64.5403 9.55331 64.5632 9.59907 64.5632 9.64482C64.5632 9.6677 64.5403 9.69058 64.5403 9.71346C64.403 10.3312 64.3573 10.9489 64.403 11.5895C64.4945 12.7563 64.9064 13.8545 65.5927 14.8154C65.73 15.0213 65.8901 15.2272 66.0503 15.4102C68.5212 18.2929 73.4401 19.8029 78.5877 18.842C79.5715 18.6818 80.4866 18.4531 81.3789 18.1785C80.5782 17.9955 79.7088 17.9497 78.8394 18.0641C78.8394 18.0641 77.4438 18.2472 76.8489 18.3615C76.7346 18.3844 76.5515 18.4073 76.46 18.4073H76.4143C75.5906 18.4759 73.0282 18.6361 70.3286 17.6752C70.3286 17.6752 67.3086 16.6457 66.0045 14.3807C66.0045 14.3807 65.7071 13.9689 66.1418 13.374C66.5307 12.8707 66.9883 12.3674 67.4688 11.9327C67.9263 11.5209 68.7271 10.9489 68.7271 10.9489C69.4592 10.4685 70.2371 10.0109 71.0607 9.59907C71.1293 9.57619 71.1751 9.53043 71.2437 9.50755C71.2437 9.50755 71.2437 9.50755 71.2437 9.48467C71.2208 9.43892 71.1751 9.37028 71.1522 9.32452C71.0607 9.11862 70.9692 8.91271 70.9005 8.7068C72.2732 8.04333 73.7832 7.51712 75.3618 7.10531C81.5162 5.57245 87.3502 6.64774 90.782 9.64482C92.3835 11.0633 93.4588 12.9165 93.7791 15.1128C93.7791 15.1585 93.7791 15.1814 93.8019 15.2272C93.8019 15.3187 93.7791 15.3187 93.7562 15.3187Z" fill="white"/>
</svg>
