<svg width="243" height="196" viewBox="0 0 243 196" fill="none" xmlns="http://www.w3.org/2000/svg">
<path opacity="0.1" d="M280.367 59.1673C280.159 54.0815 279.744 48.9957 278.705 43.7144V43.5188C277.666 38.0418 276.419 32.3692 274.757 26.8922C271.432 16.1339 266.445 5.17996 259.796 -5.18716C241.303 -34.5281 213.459 -54.8711 184.785 -63.0866C184.785 -63.0866 119.124 -83.6252 83.8004 -49.7854C83.177 -49.1985 82.5536 -48.4161 81.9303 -47.8293C59.0737 -40.2007 39.3339 -27.2907 25.2044 -11.0553C14.1917 1.46345 6.50356 16.1339 3.17897 32.1736C2.97118 33.5428 2.14003 37.455 2.14003 37.8462C-0.561198 52.9079 0.0621634 65.231 0.0621634 65.231C0.0621634 65.6223 0.0621634 66.2091 0.0621634 66.6003C0.269951 77.3586 2.14006 88.5082 5.67244 99.4621C8.99703 110.22 13.9839 121.174 20.6331 131.542C39.3339 160.882 66.9696 181.225 95.6442 189.441C95.6442 189.441 161.305 209.98 196.629 176.14C197.252 175.553 197.875 174.77 198.499 174.184C221.355 166.555 241.095 153.645 255.225 137.41C261.874 129.781 267.276 121.566 271.224 112.763C279.744 93.9851 280.99 73.2509 280.367 59.1673ZM73.411 -35.8973C84.8393 -40.9831 97.5143 -44.8952 111.644 -47.4381C133.046 -51.5458 153.617 -52.1326 172.525 -49.7854C214.498 -44.504 248.576 -24.7478 264.575 5.37556C264.783 5.57117 264.783 5.96238 264.991 6.15798C265.198 6.54919 264.991 6.7448 264.783 6.94041C264.575 7.13602 264.16 6.94041 263.744 6.5492C263.536 6.35359 263.328 5.96239 263.328 5.76678C250.238 -13.5982 229.044 -28.4643 203.278 -37.071C177.305 -45.6776 146.344 -48.0249 113.93 -42.5479C97.5143 -39.8094 82.9693 -35.3105 70.2942 -29.4423C71.3332 -31.594 72.3721 -33.7457 73.411 -35.8973ZM67.593 -13.4026C80.6835 -19.0752 94.8131 -23.5741 109.566 -27.095C157.149 -38.2446 200.161 -32.7676 230.914 -16.1411C252.316 -4.60034 267.9 12.2218 275.38 32.7604C275.588 32.956 275.588 33.3472 275.588 33.5428C276.003 34.5209 275.588 34.9121 275.172 34.9121C274.964 34.9121 274.757 34.9121 274.549 34.5209C274.549 34.3253 274.341 34.1297 274.341 33.7385C267.692 18.4812 256.056 5.37556 241.095 -4.60035C209.719 -25.5302 162.552 -33.1588 109.566 -20.2488C95.0209 -16.5323 81.0992 -11.6422 68.2164 -5.96959C68.2164 -6.5564 68.0086 -6.94762 68.0086 -7.53444C67.593 -9.29489 67.3852 -11.4466 67.593 -13.4026ZM206.81 162.252C195.382 167.337 182.707 171.25 168.577 173.792C147.175 177.9 126.605 178.487 107.696 176.14C65.7229 170.858 31.6458 151.102 15.6462 120.979C15.4384 120.783 15.4384 120.392 15.2307 120.196C15.0229 119.805 15.2306 119.61 15.4384 119.414C15.6462 119.218 16.0618 119.414 16.4773 119.805C16.6851 120.001 16.8929 120.392 16.8929 120.588C29.9835 139.953 51.1778 154.819 76.9434 163.425C102.917 172.032 133.877 174.379 166.292 168.902C182.707 166.164 197.252 161.665 209.927 155.797C208.888 157.753 207.849 160.1 206.81 162.252ZM212.836 139.757C199.746 145.43 185.616 149.929 170.863 153.449C123.28 164.599 80.4758 159.122 49.5155 142.495C28.1135 130.955 12.5294 114.133 5.04904 93.5939C5.04904 93.3983 4.8413 93.0071 4.8413 92.8115C4.42573 91.8335 4.84127 91.4423 5.25684 91.4423C5.46463 91.4423 5.67245 91.4423 5.88024 91.8335C5.88024 92.0291 6.08798 92.2247 6.08798 92.6159C12.7372 107.873 24.3732 120.979 39.3339 130.955C70.7098 151.885 117.877 159.513 170.863 146.603C185.408 142.887 199.33 137.997 212.213 132.324C212.213 132.911 212.421 133.302 212.421 133.889C212.628 135.649 212.836 137.605 212.836 139.757ZM278.289 61.7101C278.081 61.7101 277.874 61.5145 277.666 61.3189C277.666 61.1233 277.458 60.9277 277.458 60.7321C273.718 47.0397 266.237 35.1077 255.64 25.3274C225.511 -2.83989 170.655 -14.185 112.891 -1.07944C108.527 -0.101402 104.164 1.07224 100.008 2.44147C90.8651 5.17996 82.1381 8.50527 73.8266 12.2218C75.6967 15.3515 77.7745 18.2856 80.0602 20.8284C97.3065 13.1998 116.631 7.72284 136.786 5.17995C150.292 3.4195 163.591 3.2239 176.266 4.39754C210.551 7.33163 240.264 20.046 258.549 39.0198C270.185 51.1474 277.042 66.0135 277.25 82.8356C277.25 83.2268 277.25 83.8136 277.25 84.2048C277.25 84.5961 277.25 84.9873 277.25 85.3785C277.25 85.9653 276.835 86.1609 276.419 85.9653C276.211 85.9653 275.796 85.7697 275.796 85.5741C275.796 85.1829 275.588 84.7917 275.588 84.4005C273.718 71.0992 267.9 59.3629 259.38 49.1913C247.952 35.8901 231.329 25.7186 211.174 19.4592C187.278 12.0262 158.188 10.4613 127.436 16.1339C113.098 18.6768 99.5922 22.5889 86.9172 27.4791C90.2418 30.2175 93.9819 32.5648 97.9299 34.5209C112.059 28.6527 128.267 24.545 145.929 22.7845C180.629 19.4592 213.459 26.3054 236.732 39.9978C245.666 45.2792 253.355 51.5386 259.173 58.776C267.276 68.5564 271.848 79.9015 272.055 92.4203C272.263 99.4621 271.017 106.113 268.523 112.568C268.523 112.763 268.315 112.959 268.315 113.155C268.108 113.35 267.9 113.546 267.692 113.546C267.484 113.546 267.276 113.155 267.276 112.763C267.276 112.568 267.484 112.372 267.484 112.177C268.731 106.895 269.146 101.614 268.523 96.1368C267.692 86.1609 263.952 76.7718 257.718 68.5564C256.471 66.7959 255.017 65.0354 253.562 63.4706C231.121 38.8242 186.447 25.9142 139.695 34.1297C130.76 35.4989 122.449 37.455 114.345 39.8022C121.618 41.3671 129.514 41.7583 137.409 40.7803C137.409 40.7803 150.084 39.2154 155.487 38.2374C156.526 38.0418 158.188 37.8462 159.019 37.8462H159.435C166.915 37.0638 190.187 35.8901 214.706 44.1056C214.706 44.1056 242.134 52.9079 253.978 72.2729C253.978 72.2729 256.679 75.7938 252.731 80.8795C249.199 85.1829 245.043 89.4862 240.887 93.2027C236.732 96.9192 229.459 101.614 229.459 101.614C222.81 105.917 215.745 109.634 208.265 113.155V112.959C207.641 113.155 207.226 113.546 206.603 113.741C206.603 113.741 206.603 113.741 206.603 113.937C206.81 114.328 207.226 114.915 207.434 115.306C208.265 117.067 209.096 118.827 209.719 120.588C197.252 126.26 183.538 130.955 169.201 134.28C113.306 147.386 60.3204 138.192 29.1524 112.568C14.6073 100.44 4.84125 84.596 1.93223 65.8179C1.93223 65.4267 1.93229 65.231 1.7245 64.8398C1.7245 64.4486 1.93225 64.253 2.14003 64.253C2.34782 64.253 2.55565 64.4486 2.76343 64.6442C2.76343 64.8398 2.97117 65.0354 2.97117 65.231C6.71134 78.9235 14.1917 90.8555 24.7888 100.636C54.9179 128.803 109.774 140.148 167.539 127.043C171.902 126.065 176.266 124.891 180.421 123.522C189.564 120.783 198.291 117.458 206.603 113.741C204.732 110.612 202.655 107.678 200.369 105.135C183.33 112.763 163.798 118.24 143.643 120.783C130.137 122.544 116.839 122.739 104.164 121.566C69.8786 118.632 40.1651 105.917 21.8798 86.9433C10.2437 74.8158 3.38676 59.9497 3.17897 43.1275C3.17897 42.7363 3.17897 42.1495 3.17897 41.7583C3.17897 41.3671 3.17897 40.9759 3.17897 40.5847C3.17897 39.9978 3.80232 39.8022 4.01011 39.9978C4.21789 39.9978 4.6335 40.1935 4.6335 40.3891C4.6335 40.7803 4.8413 41.1715 4.8413 41.5627C6.71139 54.8639 12.5294 66.6003 21.0487 76.7718C32.477 90.073 49.1 100.245 69.2553 106.504C93.1508 113.937 122.241 115.502 152.993 109.829C167.331 107.286 180.837 103.374 193.512 98.4841C190.187 95.7456 186.447 93.3983 182.499 91.4423C168.37 97.3104 152.162 101.418 134.5 103.179C99.5922 106.504 66.9696 99.6577 43.6974 85.9653C34.7626 80.6839 27.0745 74.2289 21.2565 67.1871C13.1528 57.4068 8.58143 46.0616 8.37365 33.5428C8.16586 26.501 9.41261 19.8504 11.9061 13.3954C11.9061 13.1998 12.1139 13.0042 12.1139 12.8086C12.3216 12.613 12.5294 12.4174 12.7372 12.4174C12.945 12.4174 13.1528 12.8086 13.1528 13.1998C13.1528 13.3954 12.945 13.591 12.945 13.7866C11.6983 19.068 11.2827 24.3494 11.6983 29.8263C12.5294 39.8022 16.2696 49.1914 22.5032 57.4068C23.7499 59.1673 25.2044 60.9277 26.6589 62.4926C49.1 87.1389 93.7741 100.049 140.526 91.8335C149.461 90.4642 157.773 88.5082 165.876 86.1609C158.604 84.5961 150.708 84.2048 142.812 85.1829C142.812 85.1829 130.137 86.7477 124.734 87.7258C123.695 87.9214 122.033 88.117 121.202 88.117H120.786C113.306 88.7038 90.034 90.073 65.5151 81.8576C65.5151 81.8576 38.0872 73.0553 26.2433 53.6903C26.2433 53.6903 23.5421 50.1694 27.4901 45.0836C31.0225 40.7803 35.1782 36.4769 39.5417 32.7604C43.6974 29.2395 50.97 24.3494 50.97 24.3494C57.6192 20.2416 64.684 16.3295 72.1643 12.8086C72.7877 12.613 73.2032 12.2218 73.8266 12.0262C73.8266 12.0262 73.8266 12.0262 73.8266 11.8306C73.6188 11.4394 73.2032 10.8525 72.9954 10.4613C72.1643 8.70087 71.3331 6.94041 70.7098 5.17995C83.177 -0.492622 96.8909 -4.99155 111.228 -8.51246C167.123 -21.6181 220.109 -12.4246 251.277 13.1998C265.822 25.3274 275.588 41.1715 278.497 59.9497C278.497 60.3409 278.497 60.5365 278.705 60.9277C278.705 61.7101 278.497 61.7101 278.289 61.7101Z" fill="white"/>
</svg>
