<svg width="19" height="14" viewBox="0 0 19 14" fill="none" xmlns="http://www.w3.org/2000/svg">
<path d="M0.925747 11.9049H17.575C17.9479 11.9049 18.25 12.206 18.25 12.5774C18.25 12.9179 17.9961 13.1993 17.6666 13.2438L17.575 13.25H0.925747C0.552964 13.25 0.250774 12.9489 0.250774 12.5774C0.250774 12.2369 0.504699 11.9555 0.834157 11.911L0.925747 11.9049ZM0.925747 6.07868H17.575C17.9479 6.07868 18.25 6.37981 18.25 6.75124C18.25 7.09174 17.9961 7.37314 17.6666 7.41771L17.575 7.4238H0.925747C0.552964 7.4238 0.250774 7.12268 0.250774 6.75124C0.250774 6.41074 0.504699 6.12934 0.834157 6.08478L0.925747 6.07868ZM0.924972 0.25H17.5743C17.9471 0.25 18.2493 0.55112 18.2493 0.922564C18.2493 1.26306 17.9953 1.54445 17.6659 1.58898L17.5743 1.59513H0.924972C0.55219 1.59513 0.25 1.29401 0.25 0.922564C0.25 0.582067 0.503925 0.300675 0.833383 0.256143L0.924972 0.25Z" fill="#212121" stroke="black" stroke-width="0.5"/>
</svg>
