<svg width="17" height="17" viewBox="0 0 17 17" fill="none" xmlns="http://www.w3.org/2000/svg">
<rect width="17" height="17" rx="2" fill="#0090D4"/>
<path d="M9.36133 9.65234L10.082 10.6016C10.332 10.3438 10.5215 10.0176 10.6504 9.62305C10.7832 9.22461 10.8496 8.76367 10.8496 8.24023C10.8496 7.61133 10.75 7.07422 10.5508 6.62891C10.3555 6.18359 10.0801 5.8457 9.72461 5.61523C9.36914 5.38477 8.95898 5.26953 8.49414 5.26953C8.0293 5.26953 7.61914 5.38477 7.26367 5.61523C6.9082 5.8457 6.63086 6.18555 6.43164 6.63477C6.23633 7.08398 6.13867 7.625 6.13867 8.25781C6.13867 8.89062 6.23633 9.43164 6.43164 9.88086C6.63086 10.3301 6.9082 10.6699 7.26367 10.9004C7.61914 11.1309 8.0293 11.2461 8.49414 11.2461C8.70898 11.2461 8.91992 11.2188 9.12695 11.1641L7.9668 9.65234H9.36133ZM4.60352 8.25781C4.60352 7.36328 4.76953 6.58789 5.10156 5.93164C5.4375 5.27148 5.90039 4.76758 6.49023 4.41992C7.08008 4.07227 7.74805 3.89844 8.49414 3.89844C9.23633 3.89844 9.90234 4.07422 10.4922 4.42578C11.0859 4.77344 11.5488 5.27539 11.8809 5.93164C12.2168 6.58789 12.3848 7.36328 12.3848 8.25781C12.3887 9.01172 12.2695 9.68359 12.0273 10.2734C11.7852 10.8594 11.4453 11.3438 11.0078 11.7266L12.1855 13.2383H10.6973L9.98828 12.3418C9.52734 12.5254 9.0293 12.6172 8.49414 12.6172C7.74805 12.6172 7.08008 12.4434 6.49023 12.0957C5.90039 11.7441 5.4375 11.2402 5.10156 10.584C4.76953 9.92383 4.60352 9.14844 4.60352 8.25781Z" fill="white"/>
</svg>
