<svg width="22" height="20" viewBox="0 0 22 20" fill="none" xmlns="http://www.w3.org/2000/svg">
<path d="M12.414 0.49979L12.5406 0.613119L22 9.48734L20.9855 10.4728L19.6829 9.25101L19.6836 18.6179C19.6836 19.3463 19.0932 19.9433 18.3442 19.9959L18.2364 20H3.76363C3.00092 20 2.3757 19.4361 2.31998 18.7209L2.31636 18.6179L2.31564 9.2517L1.01454 10.4728L0 9.48734L9.44925 0.622102C10.2547 -0.162909 11.5536 -0.206444 12.414 0.49979ZM10.5427 1.5391L10.4732 1.59922L3.76291 7.89382L3.76363 18.6179L7.38109 18.6172L7.38182 11.7076C7.38182 10.9793 7.9723 10.3822 8.72127 10.329L8.82909 10.3256H13.1709C13.9336 10.3256 14.5588 10.8894 14.6146 11.6047L14.6182 11.7076L14.6175 18.6172L18.2364 18.6179L18.2356 7.89313L11.5065 1.57987C11.2431 1.33317 10.8321 1.31797 10.5427 1.5391ZM13.1709 11.7076H8.82909L8.82837 18.6172H13.1702L13.1709 11.7076Z" fill="#222222"/>
</svg>
