<svg width="12" height="14" viewBox="0 0 12 14" fill="none" xmlns="http://www.w3.org/2000/svg">
<path d="M4 9.66667C3.53333 9.66667 3.13889 9.50556 2.81667 9.18333C2.49444 8.86111 2.33333 8.46667 2.33333 8C2.33333 7.53333 2.49444 7.13889 2.81667 6.81667C3.13889 6.49444 3.53333 6.33333 4 6.33333C4.46667 6.33333 4.86111 6.49444 5.18333 6.81667C5.50556 7.13889 5.66667 7.53333 5.66667 8C5.66667 8.46667 5.50556 8.86111 5.18333 9.18333C4.86111 9.50556 4.46667 9.66667 4 9.66667ZM1.33333 13.3333C0.966667 13.3333 0.652778 13.2028 0.391667 12.9417C0.130556 12.6806 0 12.3667 0 12V2.66667C0 2.3 0.130556 1.98611 0.391667 1.725C0.652778 1.46389 0.966667 1.33333 1.33333 1.33333H2V0H3.33333V1.33333H8.66667V0H10V1.33333H10.6667C11.0333 1.33333 11.3472 1.46389 11.6083 1.725C11.8694 1.98611 12 2.3 12 2.66667V12C12 12.3667 11.8694 12.6806 11.6083 12.9417C11.3472 13.2028 11.0333 13.3333 10.6667 13.3333H1.33333ZM1.33333 12H10.6667V5.33333H1.33333V12Z" fill="#939393"/>
</svg>
