<svg width="18" height="16" viewBox="0 0 18 16" fill="none" xmlns="http://www.w3.org/2000/svg">
<path d="M16.8716 6.68656H3.53161L7.61539 1.82801C7.71015 1.71555 7.78159 1.58575 7.82561 1.446C7.86964 1.30625 7.88539 1.1593 7.87197 1.01353C7.85854 0.867767 7.81621 0.726042 7.74739 0.596451C7.67856 0.466859 7.58459 0.351937 7.47084 0.258248C7.35709 0.164559 7.22579 0.0939372 7.08443 0.0504144C6.94308 0.00689163 6.79443 -0.00867962 6.64699 0.00458974C6.34921 0.0313884 6.0744 0.174034 5.883 0.401147L0.258138 7.0871C0.220385 7.14019 0.186621 7.19594 0.157118 7.2539C0.160868 7.28306 0.155326 7.31265 0.141264 7.33855C0.127202 7.36445 0.105321 7.38537 0.0786667 7.3984C-0.0262222 7.65573 -0.0262222 7.94321 0.0786667 8.20054C0.0749173 8.2297 0.0804593 8.25929 0.0945211 8.28519C0.108583 8.31109 0.130464 8.33201 0.157118 8.34503C0.186621 8.403 0.220385 8.45875 0.258138 8.51184L5.883 15.1989C5.97777 15.3113 6.09402 15.4042 6.2251 15.4722C6.35619 15.5403 6.49954 15.5821 6.64699 15.5954C6.79443 15.6087 6.94308 15.5931 7.08443 15.5496C7.22579 15.5061 7.35709 15.4354 7.47084 15.3418C7.58459 15.2481 7.67856 15.1331 7.74739 15.0035C7.81621 14.874 7.85854 14.7322 7.87197 14.5865C7.88539 14.4407 7.86964 14.2937 7.82561 14.154C7.78159 14.0143 7.71015 13.8844 7.61539 13.772L3.53161 8.91344H16.8716C17.1709 8.91344 17.4579 8.79591 17.6695 8.5867C17.8811 8.37749 18 8.09374 18 7.79788C18 7.50201 17.8811 7.21826 17.6695 7.00905C17.4579 6.79984 17.1709 6.68231 16.8716 6.68231V6.68656Z" fill="black"/>
</svg>
