<svg width="19" height="19" viewBox="0 0 19 19" fill="none" xmlns="http://www.w3.org/2000/svg">
<path d="M8.8617 1.42489C9.25455 1.39355 9.54759 1.04969 9.51619 0.656856C9.48489 0.26402 9.14104 -0.0290427 8.74819 0.00229667C3.85144 0.392897 0 4.4893 0 9.48592C0 14.7405 4.25973 19 9.51438 19C14.5084 19 18.6032 15.153 18.9977 10.2603C19.0293 9.86744 18.7366 9.52341 18.3437 9.49172C17.9509 9.46004 17.6068 9.75279 17.5752 10.1456C17.2399 14.303 13.7587 17.5729 9.51438 17.5729C5.04793 17.5729 1.42716 13.9522 1.42716 9.48592C1.42716 5.23944 4.7008 1.7568 8.8617 1.42489ZM14.9349 2.51596C15.2013 2.22552 15.6527 2.20599 15.9432 2.47234C16.147 2.65934 16.3429 2.85512 16.5298 3.05908C16.7961 3.3496 16.7764 3.80096 16.486 4.06724C16.1954 4.33353 15.744 4.31389 15.4777 4.02338C15.3186 3.84984 15.1521 3.68326 14.9786 3.52414C14.6881 3.25779 14.6686 2.80642 14.9349 2.51596ZM8.8008 3.77753C9.16187 3.77753 9.46063 4.04614 9.50782 4.3943L9.51438 4.49109V9.48602H12.6066C13.0005 9.48602 13.3201 9.80569 13.3201 10.1996C13.3201 10.5606 13.0515 10.8593 12.7033 10.9066L12.6066 10.9131H8.8008C8.43973 10.9131 8.14098 10.6445 8.09379 10.2963L8.08722 10.1996V4.49109C8.08722 4.0972 8.40691 3.77753 8.8008 3.77753ZM11.2089 0.818843C11.3153 0.439393 11.7092 0.218057 12.0886 0.324472C12.4379 0.422401 12.779 0.539747 13.1106 0.675266C13.4755 0.824313 13.6504 1.24088 13.5014 1.60569C13.3523 1.9705 12.9358 2.14542 12.5709 1.99638C12.2893 1.88132 11.9997 1.78171 11.7033 1.69857C11.3238 1.59216 11.1024 1.19829 11.2089 0.818843ZM18.3236 5.88558C18.1744 5.52084 17.7576 5.34613 17.393 5.49535C17.0282 5.64456 16.8535 6.06121 17.0027 6.42596C17.0905 6.64051 17.1693 6.85965 17.2386 7.08293C17.2606 7.15365 17.2816 7.22478 17.3017 7.29631C17.4082 7.67577 17.8021 7.89707 18.1815 7.79061C18.5609 7.68414 18.7822 7.29024 18.6758 6.9108C18.6522 6.82654 18.6274 6.74275 18.6015 6.65944C18.5197 6.3964 18.427 6.13827 18.3236 5.88558Z" fill="#0090D4"/>
</svg>
