<svg width="33" height="36" viewBox="0 0 33 36" fill="none" xmlns="http://www.w3.org/2000/svg">
<path d="M16.5 7.93236C17.1834 7.93236 17.7375 8.52427 17.7375 9.25442V20.2716C17.7375 21.0017 17.1834 21.5936 16.5 21.5936C15.8166 21.5936 15.2625 21.0017 15.2625 20.2716V9.25442C15.2625 8.52427 15.8166 7.93236 16.5 7.93236ZM16.5 27.3187C17.4113 27.3187 18.15 26.5295 18.15 25.5559C18.15 24.5824 17.4113 23.7932 16.5 23.7932C15.5887 23.7932 14.85 24.5824 14.85 25.5559C14.85 26.5295 15.5887 27.3187 16.5 27.3187ZM16.5 0C25.6126 0 33 7.89208 33 17.6275C33 27.3628 25.6126 35.2549 16.5 35.2549C13.8298 35.2549 11.2494 34.5756 8.93122 33.2948L2.61862 35.1761C1.5215 35.5035 0.383757 34.8186 0.0774016 33.6466C-0.0239909 33.2588 -0.0239413 32.8486 0.0774677 32.4611L1.83911 25.7223C0.63751 23.2436 0 20.4836 0 17.6275C0 7.89208 7.3873 0 16.5 0ZM16.5 2.64412C8.75421 2.64412 2.475 9.35239 2.475 17.6275C2.475 20.218 3.09007 22.7102 4.2455 24.9208L4.49407 25.3962L2.65808 32.4194L9.23596 30.4588L9.6807 30.7238C11.7481 31.9552 14.0781 32.6108 16.5 32.6108C24.2458 32.6108 30.525 25.9025 30.525 17.6275C30.525 9.35239 24.2458 2.64412 16.5 2.64412Z" fill="#AEAEAE"/>
</svg>
