<svg width="10" height="11" viewBox="0 0 10 11" fill="none" xmlns="http://www.w3.org/2000/svg">
<path d="M3.25 7.85417C2.87083 7.85417 2.55035 7.72326 2.28854 7.46146C2.02674 7.19965 1.89583 6.87917 1.89583 6.5C1.89583 6.12083 2.02674 5.80035 2.28854 5.53854C2.55035 5.27674 2.87083 5.14583 3.25 5.14583C3.62917 5.14583 3.94965 5.27674 4.21146 5.53854C4.47326 5.80035 4.60417 6.12083 4.60417 6.5C4.60417 6.87917 4.47326 7.19965 4.21146 7.46146C3.94965 7.72326 3.62917 7.85417 3.25 7.85417ZM1.08333 10.8333C0.785417 10.8333 0.530382 10.7273 0.318229 10.5151C0.106076 10.303 0 10.0479 0 9.75V2.16667C0 1.86875 0.106076 1.61372 0.318229 1.40156C0.530382 1.18941 0.785417 1.08333 1.08333 1.08333H1.625V0H2.70833V1.08333H7.04167V0H8.125V1.08333H8.66667C8.96458 1.08333 9.21962 1.18941 9.43177 1.40156C9.64392 1.61372 9.75 1.86875 9.75 2.16667V9.75C9.75 10.0479 9.64392 10.303 9.43177 10.5151C9.21962 10.7273 8.96458 10.8333 8.66667 10.8333H1.08333ZM1.08333 9.75H8.66667V4.33333H1.08333V9.75Z" fill="#209DD9"/>
</svg>
