<svg width="20" height="24" viewBox="0 0 20 24" fill="none" xmlns="http://www.w3.org/2000/svg">
<path d="M16.4812 0C17.9706 0 19.1781 1.20855 19.1781 2.69938V21.3006C19.1781 22.7914 17.9706 24 16.4812 24H2.69692C1.20745 24 0 22.7914 0 21.3006V2.69938C0 1.27068 1.10893 0.101209 2.51227 0.00622644L2.69692 0H16.4812ZM17.3802 16.7961H1.79795V21.3006C1.79795 21.7975 2.20044 22.2004 2.69692 22.2004H16.4812C16.9777 22.2004 17.3802 21.7975 17.3802 21.3006V16.7961ZM4.49642 18.5957H14.6833C15.1797 18.5957 15.5822 18.9986 15.5822 19.4955C15.5822 19.9511 15.244 20.3275 14.8053 20.3872L14.6833 20.3953H4.49642C3.99992 20.3953 3.59744 19.9924 3.59744 19.4955C3.59744 19.04 3.93564 18.6635 4.37443 18.6039L4.49642 18.5957ZM16.4812 1.79959H2.69692L2.57494 1.8078C2.13614 1.86738 1.79795 2.24384 1.79795 2.69938V14.9966H4.79453V12.2918C4.79453 11.5153 5.3841 10.8767 6.13963 10.7999L6.29282 10.7921H12.8853C13.6611 10.7921 14.2991 11.3823 14.3758 12.1384L14.3836 12.2918V14.9966H17.3802V2.69938C17.3802 2.20244 16.9777 1.79959 16.4812 1.79959ZM12.5856 12.5917H6.59248V14.9966H12.5856V12.5917ZM9.58906 3.5938C11.244 3.5938 12.5856 4.93664 12.5856 6.59311C12.5856 8.24959 11.244 9.59242 9.58906 9.59242C7.93411 9.59242 6.59248 8.24959 6.59248 6.59311C6.59248 4.93664 7.93411 3.5938 9.58906 3.5938ZM9.58906 5.39338C8.92706 5.39338 8.39043 5.93052 8.39043 6.59311C8.39043 7.2557 8.92706 7.79283 9.58906 7.79283C10.2511 7.79283 10.7877 7.2557 10.7877 6.59311C10.7877 5.93052 10.2511 5.39338 9.58906 5.39338Z" fill="#0090D4"/>
</svg>
