<svg width="20" height="21" viewBox="0 0 20 21" fill="none" xmlns="http://www.w3.org/2000/svg">
<path d="M5.36212 11.5733C5.36212 12.154 4.8825 12.6247 4.29085 12.6247C3.6992 12.6247 3.21957 12.154 3.21957 11.5733C3.21957 10.9926 3.6992 10.5219 4.29085 10.5219C4.8825 10.5219 5.36212 10.9926 5.36212 11.5733ZM14.9976 12.6247C15.5892 12.6247 16.0689 12.154 16.0689 11.5733C16.0689 10.9926 15.5892 10.5219 14.9976 10.5219C14.4059 10.5219 13.9263 10.9926 13.9263 11.5733C13.9263 12.154 14.4059 12.6247 14.9976 12.6247ZM6.94654 13.4132C6.94654 12.9777 7.30626 12.6247 7.75002 12.6247H11.4828C11.9265 12.6247 12.2862 12.9777 12.2862 13.4132C12.2862 13.8487 11.9265 14.2018 11.4828 14.2018H7.75002C7.30626 14.2018 6.94654 13.8487 6.94654 13.4132ZM6.71219 0C6.26846 0 5.90874 0.35303 5.90874 0.78853V2.63665H5.19738C3.66549 2.63665 2.31359 3.61931 1.86698 5.05743L1.8025 5.26508H0.803455C0.359723 5.26508 0 5.61812 0 6.05361C0 6.4891 0.359723 6.84214 0.803455 6.84214H1.37447L1.15827 7.71163C0.463765 8.1268 0 8.87697 0 9.73342V18.6701C0 19.6862 0.839343 20.51 1.87473 20.51H3.48164C4.51702 20.51 5.35637 19.6862 5.35637 18.6701V17.3559H13.9266V18.6701C13.9266 19.6862 14.7659 20.51 15.8013 20.51H17.4082C18.4436 20.51 19.2829 19.6862 19.2829 18.6701V9.73342C19.2829 8.87623 18.8183 8.12548 18.1228 7.71053L17.9016 6.84214H18.4795C18.9232 6.84214 19.2829 6.4891 19.2829 6.05361C19.2829 5.61812 18.9232 5.26508 18.4795 5.26508H17.4703L17.4113 5.07175C16.9694 3.62643 15.6139 2.63665 14.0764 2.63665H13.3909V0.78853C13.3909 0.35303 13.0312 0 12.5875 0H6.71219ZM11.784 2.63665H7.51563V1.57706H11.784V2.63665ZM5.19738 4.21371H14.0764C14.9043 4.21371 15.6343 4.74667 15.8721 5.52492L16.0976 6.26263L16.3791 7.36783H2.89783L3.17274 6.26219L3.40409 5.51721C3.64457 4.74283 4.37252 4.21371 5.19738 4.21371ZM1.60691 15.7788V9.73342C1.60691 9.29794 1.96663 8.94489 2.41037 8.94489H16.8726C17.3163 8.94489 17.676 9.29794 17.676 9.73342V15.7788H1.60691ZM1.60691 18.6701V17.3559H3.74946V18.6701C3.74946 18.8153 3.62955 18.9329 3.48164 18.9329H1.87473C1.72682 18.9329 1.60691 18.8153 1.60691 18.6701ZM17.676 17.3559V18.6701C17.676 18.8153 17.5561 18.9329 17.4082 18.9329H15.8013C15.6533 18.9329 15.5335 18.8153 15.5335 18.6701V17.3559H17.676Z" fill="#0090D4"/>
</svg>
