<svg width="19" height="21" viewBox="0 0 19 21" fill="none" xmlns="http://www.w3.org/2000/svg">
<path d="M2.40462 0C1.07658 0 0 1.05773 0 2.3625V18.6375C0 19.9422 1.07658 21 2.40462 21H10.4204C11.7409 21 12.8129 19.9543 12.8251 18.6598L12.8253 18.6376V17.0626C12.8253 16.6277 12.4665 16.2751 12.0237 16.2751C11.5387 16.2751 11.2336 16.1469 11.0225 15.9803C10.8003 15.8046 10.617 15.5337 10.4764 15.1516C10.1851 14.3589 10.1536 13.3136 10.1535 12.3375C10.1535 12.1381 10.0764 11.9461 9.93791 11.8003C9.85636 11.7144 9.80164 11.6563 9.76221 11.6145C9.6656 11.5119 9.661 11.5071 9.57999 11.4321C9.50101 11.3591 9.25981 11.1328 8.3157 10.2057C7.815 9.71397 7.53735 9.29785 7.44651 8.98002C7.40494 8.83438 7.40707 8.72571 7.42984 8.63824C7.4525 8.55151 7.50807 8.43759 7.64861 8.29946C7.78903 8.16141 7.90478 8.1071 7.99252 8.08503C8.0809 8.06277 8.19119 8.0607 8.3391 8.1017C8.66239 8.19129 9.0856 8.46457 9.58651 8.95702C10.1632 9.52392 10.7112 10.0564 11.2021 10.5334C12.0138 11.3219 12.6701 11.9596 13.0409 12.35C13.343 12.6679 13.8502 12.685 14.1738 12.3883C14.4974 12.0916 14.5149 11.5933 14.2129 11.2753C13.9087 10.9552 13.42 10.4747 12.8248 9.8952L12.8247 6.36333L15.8614 9.34678C16.3123 9.78978 16.5657 10.3907 16.5657 11.0172V20.2125C16.5657 20.6474 16.9245 21 17.3672 21C17.8099 21 18.1687 20.6474 18.1687 20.2125V11.0172C18.1687 9.97301 17.7465 8.97151 16.9949 8.23304L12.8247 4.13589L12.8246 2.36244C12.8246 1.05769 11.7481 0 10.42 0H2.40462ZM8.96869 15.6866C9.07214 15.9681 9.20562 16.2475 9.37886 16.5079C8.57251 16.8892 8.01614 17.6996 8.01614 18.6377V19.425H4.80993V18.6377C4.80993 17.3329 3.73334 16.2752 2.40531 16.2752H1.60308V4.72465H2.40531C3.73334 4.72465 4.80993 3.66693 4.80993 2.36215V1.575H8.01614V2.36215C8.01614 3.66693 9.09266 4.72465 10.4208 4.72465H11.2217L11.2218 8.335C11.0566 8.17362 10.8892 8.0096 10.7204 7.8437C10.1528 7.28571 9.49321 6.78505 8.77418 6.58583C8.40098 6.48242 8.00021 6.45725 7.59474 6.55927C7.35332 6.62002 7.12771 6.72146 6.91888 6.85825C6.75334 6.83627 6.58448 6.82491 6.41285 6.82491C4.34697 6.82491 2.67228 8.47024 2.67228 10.4999C2.67228 12.5295 4.34697 14.1749 6.41285 14.1749C7.21866 14.1749 7.96505 13.9245 8.57572 13.4986C8.61515 14.217 8.71519 14.997 8.96869 15.6866ZM4.27536 10.4999C4.27536 9.53841 4.93312 8.7277 5.83068 8.47875C5.78592 8.79732 5.81867 9.11022 5.90311 9.40569C6.10515 10.1128 6.61409 10.7616 7.18243 11.3196C7.48349 11.6153 7.71465 11.8412 7.89302 12.0148C7.50903 12.3772 6.98739 12.5999 6.41285 12.5999C5.23232 12.5999 4.27536 11.6597 4.27536 10.4999ZM1.60308 2.3625C1.60308 1.92758 1.96194 1.575 2.40462 1.575H3.20685V2.36215C3.20685 2.79708 2.848 3.14965 2.40531 3.14965H1.60308V2.3625ZM9.61922 1.575H10.42C10.8627 1.575 11.2215 1.92756 11.2215 2.36248L11.2217 3.14965H10.4208C9.97798 3.14965 9.61922 2.79708 9.61922 2.36215V1.575ZM11.222 17.8502V18.6375C11.2221 19.0724 10.8632 19.425 10.4204 19.425H9.61922V18.6377C9.61922 18.2027 9.97798 17.8502 10.4208 17.8502H11.222ZM3.20685 19.425H2.40462C1.96194 19.425 1.60308 19.0724 1.60308 18.6375V17.8502H2.40531C2.848 17.8502 3.20685 18.2027 3.20685 18.6377V19.425Z" fill="#0090D4"/>
</svg>
