<svg width="16" height="16" viewBox="0 0 16 16" fill="none" xmlns="http://www.w3.org/2000/svg">
<path d="M3.04792 11.9542C3.72083 11.4396 4.47292 11.0339 5.30417 10.737C6.13542 10.4401 7.00625 10.2917 7.91667 10.2917C8.82708 10.2917 9.69792 10.4401 10.5292 10.737C11.3604 11.0339 12.1125 11.4396 12.7854 11.9542C13.2472 11.4132 13.6068 10.7997 13.8641 10.1135C14.1214 9.42743 14.25 8.69514 14.25 7.91667C14.25 6.16181 13.6332 4.66753 12.3995 3.43385C11.1658 2.20017 9.67153 1.58333 7.91667 1.58333C6.16181 1.58333 4.66753 2.20017 3.43385 3.43385C2.20017 4.66753 1.58333 6.16181 1.58333 7.91667C1.58333 8.69514 1.71198 9.42743 1.96927 10.1135C2.22656 10.7997 2.58611 11.4132 3.04792 11.9542ZM7.91667 8.70833C7.13819 8.70833 6.48177 8.44115 5.9474 7.90677C5.41302 7.3724 5.14583 6.71597 5.14583 5.9375C5.14583 5.15903 5.41302 4.5026 5.9474 3.96823C6.48177 3.43385 7.13819 3.16667 7.91667 3.16667C8.69514 3.16667 9.35156 3.43385 9.88594 3.96823C10.4203 4.5026 10.6875 5.15903 10.6875 5.9375C10.6875 6.71597 10.4203 7.3724 9.88594 7.90677C9.35156 8.44115 8.69514 8.70833 7.91667 8.70833ZM7.91667 15.8333C6.82153 15.8333 5.79236 15.6255 4.82917 15.2099C3.86597 14.7943 3.02812 14.2302 2.31562 13.5177C1.60312 12.8052 1.03906 11.9674 0.623437 11.0042C0.207812 10.041 0 9.01181 0 7.91667C0 6.82153 0.207812 5.79236 0.623437 4.82917C1.03906 3.86597 1.60312 3.02812 2.31562 2.31562C3.02812 1.60312 3.86597 1.03906 4.82917 0.623437C5.79236 0.207812 6.82153 0 7.91667 0C9.01181 0 10.041 0.207812 11.0042 0.623437C11.9674 1.03906 12.8052 1.60312 13.5177 2.31562C14.2302 3.02812 14.7943 3.86597 15.2099 4.82917C15.6255 5.79236 15.8333 6.82153 15.8333 7.91667C15.8333 9.01181 15.6255 10.041 15.2099 11.0042C14.7943 11.9674 14.2302 12.8052 13.5177 13.5177C12.8052 14.2302 11.9674 14.7943 11.0042 15.2099C10.041 15.6255 9.01181 15.8333 7.91667 15.8333Z" fill="#1D1B20"/>
</svg>
