<svg width="23" height="20" viewBox="0 0 23 20" fill="none" xmlns="http://www.w3.org/2000/svg">
<path d="M12.6097 0.49979L12.7383 0.613119L22.3468 9.48734L21.3162 10.4728L19.9932 9.25101L19.9939 18.6179C19.9939 19.3463 19.3941 19.9433 18.6333 19.9959L18.5238 20H3.82296C3.04822 20 2.41315 19.4361 2.35655 18.7209L2.35287 18.6179L2.35214 9.2517L1.03053 10.4728L0 9.48734L9.59819 0.622102C10.4163 -0.162909 11.7357 -0.206444 12.6097 0.49979ZM10.7088 1.5391L10.6383 1.59922L3.82222 7.89382L3.82296 18.6179L7.49744 18.6172L7.49818 11.7076C7.49818 10.9793 8.09797 10.3822 8.85874 10.329L8.96826 10.3256H13.3785C14.1533 10.3256 14.7883 10.8894 14.8449 11.6047L14.8486 11.7076L14.8479 18.6172L18.5238 18.6179L18.5231 7.89313L11.6879 1.57987C11.4204 1.33317 11.0029 1.31797 10.7088 1.5391ZM13.3785 11.7076H8.96826L8.96753 18.6172H13.3778L13.3785 11.7076Z" fill="#0090D4"/>
</svg>
