<svg width="15" height="15" viewBox="0 0 15 15" fill="none" xmlns="http://www.w3.org/2000/svg">
<path d="M7.5 0C11.6423 0 15 3.3585 15 7.5C15 11.6415 11.6423 15 7.5 15C3.35775 15 0 11.6415 0 7.5C0 3.3585 3.35775 0 7.5 0ZM7.5 10.125C7.08577 10.125 6.75 10.4608 6.75 10.875C6.75 11.2892 7.08577 11.625 7.5 11.625C7.91423 11.625 8.25 11.2892 8.25 10.875C8.25 10.4608 7.91423 10.125 7.5 10.125ZM7.5 3.5625C6.3609 3.5625 5.4375 4.48592 5.4375 5.625C5.4375 5.93566 5.68934 6.1875 6 6.1875C6.28477 6.1875 6.52013 5.97589 6.5574 5.70133L6.5625 5.625C6.5625 5.10723 6.9822 4.6875 7.5 4.6875C8.0178 4.6875 8.4375 5.10723 8.4375 5.625C8.4375 6.0291 8.33625 6.22897 7.95382 6.62415L7.85227 6.72727C7.1937 7.38585 6.9375 7.81283 6.9375 8.625C6.9375 8.93565 7.18935 9.1875 7.5 9.1875C7.81065 9.1875 8.0625 8.93565 8.0625 8.625C8.0625 8.2209 8.16375 8.02102 8.54618 7.62585L8.64773 7.52273C9.3063 6.86415 9.5625 6.43717 9.5625 5.625C9.5625 4.48592 8.6391 3.5625 7.5 3.5625Z" fill="#0090D4"/>
</svg>
