<svg width="101" height="33" viewBox="0 0 101 33" fill="none" xmlns="http://www.w3.org/2000/svg">
<path d="M19.4471 27.1616L10.4059 15.7809L19.1303 5.25317H12.9891L4.67901 15.6591V5.25317H0V27.1616H4.67901V15.9028L12.8185 27.1616H19.4471Z" fill="#140661"/>
<path d="M52.6388 13.807C54.0035 13.807 59.7792 14.6843 59.7792 20.4112C59.7792 26.4793 53.9548 27.1373 53.9548 27.1373H40.332V23.6037H51.2985C54.4665 23.6037 54.4422 20.5818 54.4422 20.5818C54.4422 17.2675 50.6892 17.3893 50.6892 17.3893C50.6892 17.3893 47.5455 17.3893 46.4976 17.3893C44.5724 17.3893 39.601 16.6826 39.601 11.565C39.601 5.39939 45.7665 5.25317 45.7665 5.25317H58.2439V8.76243H48.0085C44.6942 8.76243 44.743 11.3213 44.743 11.3213C44.743 11.3213 44.7674 13.8314 47.643 13.8314L52.6388 13.807Z" fill="#140661"/>
<path d="M33.0698 27.1616C36.3598 27.1616 39.3572 24.749 39.3572 21.0448C39.3572 16.8045 36.2379 15.4885 36.2379 15.4885C36.2379 15.4885 38.7236 14.6356 38.4799 10.8339C38.1388 5.32628 31.9245 5.25317 31.9245 5.25317H19.8614V27.1616C19.8614 27.1616 30.2917 27.1616 33.0698 27.1616ZM24.2967 8.81117H30.3404C30.3404 8.81117 33.6303 8.66495 33.6303 11.3944C33.6303 13.7339 31.5589 13.9045 30.9009 13.9288H24.3211V8.81117H24.2967ZM29.8043 23.6037H24.2967V17.4381H31.0715C31.0715 17.4381 34.5077 17.5599 34.5077 20.4843C34.5077 23.3843 31.9488 23.6037 29.8043 23.6037Z" fill="#140661"/>
<path d="M100.111 16.0004C100.087 15.3668 100.038 14.7332 99.9164 14.0752V14.0508C99.7945 13.3685 99.6483 12.6618 99.4533 11.9794C99.0634 10.6391 98.4785 9.27435 97.6987 7.98274C95.5298 4.32727 92.2642 1.79281 88.9012 0.769277C88.9012 0.769277 81.2003 -1.78955 77.0575 2.42643C76.9844 2.49953 76.9112 2.59701 76.8381 2.67012C74.1574 3.62055 71.8423 5.22895 70.1852 7.25165C68.8936 8.81132 67.9919 10.6391 67.602 12.6374C67.5776 12.808 67.4801 13.2954 67.4801 13.3441C67.1633 15.2206 67.2364 16.7559 67.2364 16.7559C67.2364 16.8046 67.2364 16.8777 67.2364 16.9265C67.2608 18.2668 67.4801 19.6559 67.8944 21.0206C68.2843 22.3609 68.8692 23.7257 69.649 25.0173C71.8423 28.6727 75.0835 31.2072 78.4465 32.2307C78.4465 32.2307 86.1474 34.7896 90.2903 30.5736C90.3634 30.5005 90.4365 30.403 90.5096 30.3299C93.1903 29.3795 95.5054 27.771 97.1626 25.7483C97.9424 24.7979 98.576 23.7744 99.039 22.6777C100.038 20.3382 100.184 17.755 100.111 16.0004ZM75.839 4.15668C77.1793 3.52307 78.6659 3.03567 80.323 2.71886C82.8331 2.2071 85.2457 2.13399 87.4634 2.42643C92.3861 3.08441 96.3827 5.54576 98.2592 9.29872C98.2836 9.32309 98.2836 9.37182 98.3079 9.39619C98.3323 9.44493 98.3079 9.4693 98.2836 9.49367C98.2592 9.51804 98.2105 9.49367 98.1617 9.44493C98.1374 9.42056 98.113 9.37183 98.113 9.34746C96.5777 6.93484 94.092 5.08274 91.0701 4.01046C88.0239 2.93819 84.3928 2.64575 80.5911 3.32811C78.6659 3.66929 76.96 4.22979 75.4734 4.96089C75.5953 4.69282 75.7171 4.42475 75.839 4.15668ZM75.1566 6.95921C76.6919 6.25249 78.3491 5.69198 80.0793 5.25332C85.66 3.86424 90.7046 4.5466 94.3113 6.61804C96.8214 8.05585 98.6491 10.1517 99.5264 12.7105C99.5508 12.7349 99.5508 12.7836 99.5508 12.808C99.5995 12.9298 99.5508 12.9786 99.5021 12.9786C99.4777 12.9786 99.4533 12.9786 99.429 12.9298C99.429 12.9054 99.4046 12.8811 99.4046 12.8323C98.6248 10.9315 97.26 9.29871 95.5054 8.05585C91.8256 5.44828 86.2936 4.49786 80.0793 6.10627C78.3734 6.5693 76.7407 7.17854 75.2297 7.88527C75.2297 7.81216 75.2054 7.76342 75.2054 7.69031C75.1566 7.47098 75.1322 7.20291 75.1566 6.95921ZM91.4844 28.8433C90.1441 29.4769 88.6575 29.9643 87.0003 30.2811C84.4903 30.7929 82.0776 30.866 79.86 30.5736C74.9373 29.9156 70.9406 27.4542 69.0642 23.7013C69.0398 23.6769 69.0398 23.6282 69.0154 23.6038C68.991 23.5551 69.0154 23.5307 69.0398 23.5063C69.0642 23.482 69.1129 23.5063 69.1616 23.5551C69.186 23.5794 69.2104 23.6282 69.2104 23.6525C70.7457 26.0652 73.2314 27.9173 76.2533 28.9895C79.2995 30.0618 82.9306 30.3542 86.7323 29.6719C88.6575 29.3307 90.3634 28.7702 91.8499 28.0391C91.7281 28.2828 91.6062 28.5752 91.4844 28.8433ZM92.1911 26.0408C90.6558 26.7475 88.9987 27.308 87.2684 27.7467C81.6877 29.1358 76.6675 28.4534 73.0364 26.382C70.5263 24.9441 68.6986 22.8483 67.8213 20.2895C67.8213 20.2651 67.7969 20.2164 67.7969 20.192C67.7482 20.0702 67.7969 20.0214 67.8457 20.0214C67.87 20.0214 67.8944 20.0214 67.9188 20.0702C67.9188 20.0945 67.9431 20.1189 67.9431 20.1677C68.723 22.0685 70.0877 23.7013 71.8423 24.9441C75.5222 27.5517 81.0541 28.5021 87.2684 26.8937C88.9743 26.4307 90.6071 25.8215 92.118 25.1147C92.118 25.1878 92.1424 25.2366 92.1424 25.3097C92.1668 25.529 92.1911 25.7727 92.1911 26.0408ZM99.8676 16.3172C99.8432 16.3172 99.8189 16.2929 99.7945 16.2685C99.7945 16.2441 99.7701 16.2197 99.7701 16.1954C99.3315 14.4895 98.4542 13.0029 97.2113 11.7844C93.6777 8.27518 87.244 6.86173 80.4692 8.49451C79.9575 8.61636 79.4457 8.76258 78.9583 8.93317C77.886 9.27435 76.8625 9.68863 75.8877 10.1517C76.107 10.5416 76.3507 10.9071 76.6188 11.2239C78.6415 10.2735 80.9079 9.59115 83.2718 9.27435C84.8558 9.05502 86.4155 9.03065 87.902 9.17687C91.9231 9.54241 95.4079 11.1265 97.5525 13.4903C98.9172 15.0013 99.7214 16.8534 99.7458 18.9492C99.7458 18.9979 99.7458 19.071 99.7458 19.1198C99.7458 19.1685 99.7458 19.2172 99.7458 19.266C99.7458 19.3391 99.697 19.3635 99.6483 19.3391C99.6239 19.3391 99.5752 19.3147 99.5752 19.2903C99.5752 19.2416 99.5508 19.1929 99.5508 19.1441C99.3315 17.487 98.6491 16.0248 97.65 14.7576C96.3096 13.1004 94.36 11.8332 91.9962 11.0533C89.1936 10.1273 85.7819 9.93233 82.1751 10.6391C80.4936 10.9559 78.9096 11.4433 77.423 12.0525C77.8129 12.3937 78.2516 12.6861 78.7146 12.9298C80.3718 12.1987 82.2726 11.687 84.344 11.4676C88.4138 11.0533 92.2642 11.9063 94.9936 13.6122C96.0415 14.2702 96.9432 15.05 97.6256 15.9517C98.576 17.1702 99.1122 18.5836 99.1365 20.1433C99.1609 21.0206 99.0147 21.8492 98.7222 22.6534C98.7222 22.6777 98.6979 22.7021 98.6979 22.7265C98.6735 22.7509 98.6491 22.7752 98.6248 22.7752C98.6004 22.7752 98.576 22.7265 98.576 22.6777C98.576 22.6534 98.6004 22.629 98.6004 22.6046C98.7466 21.9467 98.7953 21.2887 98.7222 20.6063C98.6248 19.3635 98.1861 18.1937 97.455 17.1702C97.3088 16.9508 97.1382 16.7315 96.9676 16.5366C94.3357 13.466 89.0962 11.8575 83.6129 12.8811C82.565 13.0517 81.5902 13.2954 80.6398 13.5878C81.4928 13.7828 82.4188 13.8315 83.3449 13.7097C83.3449 13.7097 84.8314 13.5147 85.4651 13.3928C85.5869 13.3685 85.7819 13.3441 85.8793 13.3441H85.9281C86.8054 13.2466 89.5348 13.1004 92.4105 14.1239C92.4105 14.1239 95.6273 15.2206 97.0163 17.6332C97.0163 17.6332 97.3332 18.0719 96.8701 18.7055C96.4558 19.2416 95.9684 19.7777 95.481 20.2408C94.9936 20.7038 94.1407 21.2887 94.1407 21.2887C93.3609 21.8248 92.5323 22.2878 91.655 22.7265V22.7021C91.5819 22.7265 91.5331 22.7752 91.46 22.7996C91.46 22.7996 91.46 22.7996 91.46 22.824C91.4844 22.8727 91.5331 22.9458 91.5575 22.9946C91.655 23.2139 91.7525 23.4332 91.8256 23.6525C90.3634 24.3593 88.755 24.9441 87.0735 25.3584C80.518 26.9912 74.3037 25.8458 70.6482 22.6534C68.9423 21.1425 67.7969 19.1685 67.4557 16.829C67.4557 16.7803 67.4557 16.7559 67.4314 16.7071C67.4314 16.6584 67.4557 16.634 67.4801 16.634C67.5045 16.634 67.5289 16.6584 67.5532 16.6828C67.5532 16.7071 67.5776 16.7315 67.5776 16.7559C68.0162 18.4618 68.8936 19.9483 70.1364 21.1668C73.67 24.6761 80.1037 26.0895 86.8785 24.4567C87.3903 24.3349 87.902 24.1887 88.3894 24.0181C89.4617 23.6769 90.4852 23.2626 91.46 22.7996C91.2407 22.4097 90.997 22.0441 90.7289 21.7273C88.7306 22.6777 86.4398 23.3601 84.076 23.6769C82.4919 23.8962 80.9323 23.9206 79.4457 23.7744C75.4247 23.4088 71.9398 21.8248 69.7952 19.4609C68.4305 17.95 67.6263 16.0979 67.602 14.0021C67.602 13.9534 67.602 13.8802 67.602 13.8315C67.602 13.7828 67.602 13.734 67.602 13.6853C67.602 13.6122 67.6751 13.5878 67.6994 13.6122C67.7238 13.6122 67.7726 13.6365 67.7726 13.6609C67.7726 13.7097 67.7969 13.7584 67.7969 13.8071C68.0163 15.4643 68.6986 16.9265 69.6978 18.1937C71.0381 19.8508 72.9877 21.1181 75.3516 21.8979C78.1541 22.824 81.5659 23.0189 85.1726 22.3122C86.8541 21.9954 88.4382 21.508 89.9247 20.8988C89.5348 20.5576 89.0962 20.2651 88.6331 20.0214C86.976 20.7525 85.0751 21.2643 83.0037 21.4836C78.9096 21.8979 75.0835 21.045 72.3541 19.3391C71.3062 18.6811 70.4045 17.8769 69.7221 16.9996C68.7717 15.7811 68.2356 14.3676 68.2112 12.808C68.1868 11.9307 68.3331 11.1021 68.6255 10.2979C68.6255 10.2735 68.6499 10.2491 68.6499 10.2248C68.6742 10.2004 68.6986 10.176 68.723 10.176C68.7473 10.176 68.7717 10.2248 68.7717 10.2735C68.7717 10.2979 68.7473 10.3222 68.7473 10.3466C68.6011 11.0046 68.5524 11.6626 68.6011 12.3449C68.6986 13.5878 69.1373 14.7576 69.8684 15.7811C70.0146 16.0004 70.1852 16.2197 70.3558 16.4147C72.9877 19.4853 78.2272 21.0937 83.7104 20.0702C84.7583 19.8996 85.7331 19.6559 86.6835 19.3635C85.8306 19.1685 84.9045 19.1198 83.9785 19.2416C83.9785 19.2416 82.4919 19.4366 81.8583 19.5584C81.7365 19.5828 81.5415 19.6072 81.444 19.6072H81.3953C80.518 19.6803 77.7886 19.8509 74.9129 18.8273C74.9129 18.8273 71.6961 17.7307 70.307 15.3181C70.307 15.3181 69.9902 14.8794 70.4532 14.2458C70.8675 13.7097 71.3549 13.1735 71.8667 12.7105C72.3541 12.2718 73.207 11.6626 73.207 11.6626C73.9869 11.1508 74.8154 10.6634 75.6927 10.2248C75.7659 10.2004 75.8146 10.1517 75.8877 10.1273C75.8877 10.1273 75.8877 10.1273 75.8877 10.1029C75.8633 10.0542 75.8146 9.98107 75.7902 9.93233C75.6927 9.713 75.5953 9.49367 75.5222 9.27435C76.9843 8.56762 78.5928 8.00712 80.2743 7.56846C86.8298 5.93568 93.0441 7.08106 96.6995 10.2735C98.4054 11.7844 99.5508 13.7584 99.892 16.0979C99.892 16.1466 99.892 16.171 99.9164 16.2197C99.9164 16.3172 99.892 16.3172 99.8676 16.3172Z" fill="#0090D4"/>
</svg>
