<svg width="20" height="20" viewBox="0 0 20 20" fill="none" xmlns="http://www.w3.org/2000/svg">
<path d="M13.6426 15.1367C13.5059 14.3945 13.252 13.7109 12.8809 13.0859C12.5098 12.4609 12.0508 11.9206 11.5039 11.4648C10.957 11.0091 10.3418 10.651 9.6582 10.3906C8.97461 10.1302 8.25521 10 7.5 10C6.92708 10 6.3737 10.0749 5.83984 10.2246C5.30599 10.3743 4.80794 10.5827 4.3457 10.8496C3.88346 11.1165 3.46354 11.4421 3.08594 11.8262C2.70833 12.2103 2.38281 12.6335 2.10938 13.0957C1.83594 13.5579 1.62435 14.056 1.47461 14.5898C1.32487 15.1237 1.25 15.6771 1.25 16.25H0C0 15.4883 0.113932 14.7428 0.341797 14.0137C0.569661 13.2845 0.898438 12.6107 1.32812 11.9922C1.75781 11.3737 2.26888 10.8236 2.86133 10.3418C3.45378 9.86003 4.11458 9.49219 4.84375 9.23828C4.47917 9.00391 4.15365 8.73372 3.86719 8.42773C3.58073 8.12175 3.33333 7.78646 3.125 7.42188C2.91667 7.05729 2.76367 6.66992 2.66602 6.25977C2.56836 5.84961 2.51302 5.42969 2.5 5C2.5 4.3099 2.63021 3.66211 2.89062 3.05664C3.15104 2.45117 3.50586 1.92057 3.95508 1.46484C4.4043 1.00911 4.9349 0.651042 5.54688 0.390625C6.15885 0.130208 6.8099 0 7.5 0C8.1901 0 8.83789 0.130208 9.44336 0.390625C10.0488 0.651042 10.5794 1.00586 11.0352 1.45508C11.4909 1.9043 11.849 2.4349 12.1094 3.04688C12.3698 3.65885 12.5 4.3099 12.5 5C12.5 5.42969 12.4479 5.84961 12.3438 6.25977C12.2396 6.66992 12.0833 7.05729 11.875 7.42188C11.6667 7.78646 11.4225 8.12175 11.1426 8.42773C10.8626 8.73372 10.5339 9.00391 10.1562 9.23828C10.8008 9.48568 11.3965 9.8112 11.9434 10.2148C12.4902 10.6185 12.9688 11.084 13.3789 11.6113C13.7891 12.1387 14.1309 12.7148 14.4043 13.3398C14.6777 13.9648 14.8535 14.6224 14.9316 15.3125L14.375 15.8789L13.6426 15.1367ZM3.75 5C3.75 5.52083 3.84766 6.00586 4.04297 6.45508C4.23828 6.9043 4.50521 7.30143 4.84375 7.64648C5.18229 7.99154 5.57943 8.26172 6.03516 8.45703C6.49089 8.65234 6.97917 8.75 7.5 8.75C8.01432 8.75 8.49935 8.65234 8.95508 8.45703C9.41081 8.26172 9.80794 7.99479 10.1465 7.65625C10.485 7.31771 10.7552 6.92057 10.957 6.46484C11.1589 6.00911 11.2565 5.52083 11.25 5C11.25 4.48568 11.1523 4.00065 10.957 3.54492C10.7617 3.08919 10.4948 2.69206 10.1562 2.35352C9.81771 2.01497 9.41732 1.74479 8.95508 1.54297C8.49284 1.34115 8.00781 1.24349 7.5 1.25C6.97917 1.25 6.49414 1.34766 6.04492 1.54297C5.5957 1.73828 5.19857 2.00521 4.85352 2.34375C4.50846 2.68229 4.23828 3.08268 4.04297 3.54492C3.84766 4.00716 3.75 4.49219 3.75 5ZM19.8145 14.1895L14.375 19.6387L11.748 17.002L12.627 16.123L14.375 17.8613L18.9355 13.3105L19.8145 14.1895Z" fill="#140661"/>
</svg>
