<svg width="122" height="41" viewBox="0 0 122 41" fill="none" xmlns="http://www.w3.org/2000/svg">
<path d="M23.6953 33.0952L12.6791 19.2284L23.3093 6.40088H15.8266L5.70113 19.08V6.40088H0V33.0952H5.70113V19.3769L15.6187 33.0952H23.6953Z" fill="#140661"/>
<path d="M64.1378 16.8233C65.8006 16.8233 72.838 17.8922 72.838 24.8702C72.838 32.2638 65.7412 33.0655 65.7412 33.0655H49.1426V28.76H62.5047C66.3648 28.76 66.3351 25.078 66.3351 25.078C66.3351 21.0397 61.7623 21.1882 61.7623 21.1882C61.7623 21.1882 57.9319 21.1882 56.6551 21.1882C54.3093 21.1882 48.2518 20.3271 48.2518 14.0915C48.2518 6.57904 55.7643 6.40088 55.7643 6.40088H70.9673V10.6767H58.496C54.4577 10.6767 54.5171 13.7945 54.5171 13.7945C54.5171 13.7945 54.5468 16.8529 58.0506 16.8529L64.1378 16.8233Z" fill="#140661"/>
<path d="M40.2939 33.0952C44.3025 33.0952 47.9548 30.1556 47.9548 25.6422C47.9548 20.4755 44.154 18.8721 44.154 18.8721C44.154 18.8721 47.1827 17.8328 46.8858 13.2007C46.4701 6.48996 38.8983 6.40088 38.8983 6.40088H24.2001V33.0952C24.2001 33.0952 36.9088 33.0952 40.2939 33.0952ZM29.6043 10.7361H36.9682C36.9682 10.7361 40.9768 10.558 40.9768 13.8836C40.9768 16.7342 38.4529 16.942 37.6512 16.9717H29.634V10.7361H29.6043ZM36.315 28.76H29.6043V21.2476H37.859C37.859 21.2476 42.0458 21.396 42.0458 24.9592C42.0458 28.4928 38.928 28.76 36.315 28.76Z" fill="#140661"/>
<path d="M121.98 19.4957C121.951 18.7237 121.891 17.9516 121.743 17.1499V17.1202C121.594 16.2888 121.416 15.4277 121.179 14.5963C120.704 12.9631 119.991 11.3003 119.041 9.72656C116.398 5.27256 112.419 2.18445 108.321 0.937324C108.321 0.937324 98.9384 -2.18048 93.8905 2.95647C93.8014 3.04555 93.7123 3.16433 93.6232 3.25341C90.357 4.41145 87.5361 6.37121 85.5169 8.83576C83.9432 10.7361 82.8445 12.9631 82.3694 15.398C82.3398 15.6059 82.221 16.1997 82.221 16.2591C81.835 18.5455 81.924 20.4162 81.924 20.4162C81.924 20.4756 81.924 20.5646 81.924 20.624C81.9537 22.2572 82.221 23.9497 82.7258 25.6125C83.2009 27.2457 83.9135 28.9085 84.8637 30.4822C87.5361 34.9362 91.4853 38.0244 95.583 39.2715C95.583 39.2715 104.966 42.3893 110.014 37.2523C110.103 37.1632 110.192 37.0445 110.281 36.9554C113.547 35.7973 116.368 33.8376 118.388 31.373C119.338 30.215 120.11 28.9679 120.674 27.6317C121.891 24.7811 122.069 21.6336 121.98 19.4957ZM92.4058 5.0647C94.0389 4.29268 95.8502 3.69881 97.8694 3.31279C100.928 2.68923 103.867 2.60015 106.57 2.95647C112.568 3.7582 117.437 6.75723 119.724 11.33C119.753 11.3597 119.753 11.4191 119.783 11.4488C119.813 11.5082 119.783 11.5379 119.753 11.5676C119.724 11.5972 119.664 11.5676 119.605 11.5082C119.575 11.4785 119.546 11.4191 119.546 11.3894C117.675 8.44975 114.646 6.19305 110.964 4.88654C107.253 3.58003 102.828 3.22371 98.196 4.05513C95.8502 4.47084 93.7717 5.15378 91.9604 6.04459C92.1089 5.71796 92.2573 5.39133 92.4058 5.0647ZM91.5744 8.47944C93.4451 7.61833 95.4642 6.93539 97.5725 6.40091C104.372 4.70838 110.519 5.5398 114.913 8.06374C117.972 9.81564 120.199 12.3693 121.268 15.4871C121.297 15.5168 121.297 15.5762 121.297 15.6059C121.357 15.7543 121.297 15.8137 121.238 15.8137C121.208 15.8137 121.179 15.8137 121.149 15.7543C121.149 15.7246 121.119 15.6949 121.119 15.6355C120.169 13.3195 118.506 11.33 116.368 9.81564C111.885 6.63845 105.144 5.48041 97.5725 7.44017C95.4939 8.00435 93.5045 8.74668 91.6635 9.60779C91.6635 9.51871 91.6338 9.45932 91.6338 9.37024C91.5744 9.103 91.5447 8.77638 91.5744 8.47944ZM111.469 35.1441C109.836 35.9161 108.025 36.51 106.005 36.896C102.947 37.5196 100.007 37.6086 97.3052 37.2523C91.3072 36.4506 86.4374 33.4516 84.151 28.8788C84.1214 28.8491 84.1214 28.7897 84.0917 28.76C84.062 28.7006 84.0917 28.6709 84.1214 28.6412C84.151 28.6116 84.2104 28.6412 84.2698 28.7006C84.2995 28.7303 84.3292 28.7897 84.3292 28.8194C86.1999 31.759 89.2286 34.0157 92.9106 35.3223C96.6223 36.6288 101.047 36.9851 105.679 36.1537C108.025 35.738 110.103 35.055 111.914 34.1642C111.766 34.4611 111.617 34.8175 111.469 35.1441ZM112.33 31.7294C110.459 32.5905 108.44 33.2734 106.332 33.8079C99.5322 35.5004 93.4154 34.669 88.9911 32.1451C85.9327 30.3932 83.7056 27.8395 82.6367 24.7217C82.6367 24.692 82.607 24.6326 82.607 24.6029C82.5476 24.4545 82.607 24.3951 82.6664 24.3951C82.6961 24.3951 82.7258 24.3951 82.7555 24.4545C82.7555 24.4842 82.7852 24.5139 82.7852 24.5733C83.7353 26.8893 85.3982 28.8788 87.5361 30.3932C92.0198 33.5703 98.7602 34.7284 106.332 32.7686C108.411 32.2045 110.4 31.4621 112.241 30.601C112.241 30.6901 112.271 30.7495 112.271 30.8386C112.3 31.1058 112.33 31.4027 112.33 31.7294ZM121.683 19.8817C121.654 19.8817 121.624 19.852 121.594 19.8223C121.594 19.7926 121.565 19.7629 121.565 19.7332C121.03 17.6547 119.961 15.8434 118.447 14.3587C114.141 10.0829 106.302 8.36067 98.0476 10.3501C97.424 10.4986 96.8004 10.6768 96.2066 10.8846C94.9001 11.3003 93.6529 11.8051 92.4652 12.3693C92.7324 12.8444 93.0294 13.2898 93.356 13.6758C95.8205 12.5177 98.582 11.6863 101.462 11.3003C103.392 11.0331 105.293 11.0034 107.104 11.1815C112.003 11.6269 116.25 13.557 118.863 16.4373C120.525 18.2783 121.505 20.535 121.535 23.0886C121.535 23.148 121.535 23.2371 121.535 23.2964C121.535 23.3558 121.535 23.4152 121.535 23.4746C121.535 23.5637 121.476 23.5934 121.416 23.5637C121.387 23.5637 121.327 23.534 121.327 23.5043C121.327 23.4449 121.297 23.3855 121.297 23.3261C121.03 21.307 120.199 19.5254 118.981 17.9813C117.348 15.9622 114.973 14.4181 112.093 13.4679C108.678 12.3396 104.521 12.102 100.126 12.9631C98.0772 13.3492 96.1472 13.943 94.3359 14.6854C94.811 15.1011 95.3455 15.4574 95.9096 15.7543C97.9288 14.8635 100.245 14.24 102.769 13.9727C107.728 13.4679 112.419 14.5072 115.745 16.5857C117.022 17.3875 118.12 18.3376 118.952 19.4363C120.11 20.921 120.763 22.6432 120.793 24.5436C120.822 25.6125 120.644 26.6221 120.288 27.602C120.288 27.6317 120.258 27.6614 120.258 27.6911C120.229 27.7208 120.199 27.7504 120.169 27.7504C120.139 27.7504 120.11 27.6911 120.11 27.6317C120.11 27.602 120.139 27.5723 120.139 27.5426C120.318 26.7409 120.377 25.9391 120.288 25.1077C120.169 23.5934 119.635 22.1681 118.744 20.921C118.566 20.6537 118.358 20.3865 118.15 20.1489C114.943 16.4076 108.559 14.4478 101.878 15.6949C100.601 15.9028 99.4134 16.1997 98.2554 16.556C99.2947 16.7936 100.423 16.853 101.551 16.7045C101.551 16.7045 103.363 16.467 104.135 16.3185C104.283 16.2888 104.521 16.2591 104.639 16.2591H104.699C105.768 16.1403 109.093 15.9622 112.597 17.2093C112.597 17.2093 116.517 18.5455 118.209 21.4851C118.209 21.4851 118.595 22.0196 118.031 22.7917C117.526 23.4449 116.933 24.0982 116.339 24.6623C115.745 25.2265 114.706 25.9391 114.706 25.9391C113.755 26.5924 112.746 27.1566 111.677 27.6911V27.6614C111.588 27.6911 111.528 27.7504 111.439 27.7801C111.439 27.7801 111.439 27.7801 111.439 27.8098C111.469 27.8692 111.528 27.9583 111.558 28.0177C111.677 28.2849 111.796 28.5522 111.885 28.8194C110.103 29.6805 108.143 30.3932 106.094 30.8979C98.1069 32.8874 90.5351 31.4918 86.0811 27.602C84.0026 25.761 82.607 23.3558 82.1913 20.5053C82.1913 20.4459 82.1913 20.4162 82.1616 20.3568C82.1616 20.2974 82.1913 20.2677 82.221 20.2677C82.2507 20.2677 82.2804 20.2974 82.3101 20.3271C82.3101 20.3568 82.3397 20.3865 82.3397 20.4162C82.8742 22.4947 83.9432 24.306 85.4576 25.7907C89.7631 30.0665 97.6022 31.7887 105.857 29.7993C106.48 29.6508 107.104 29.4727 107.698 29.2648C109.004 28.8491 110.252 28.3443 111.439 27.7801C111.172 27.305 110.875 26.8596 110.548 26.4736C108.114 27.6317 105.322 28.4631 102.442 28.8491C100.512 29.1163 98.6117 29.146 96.8004 28.9679C91.901 28.5225 87.6549 26.5924 85.0418 23.7121C83.379 21.8712 82.3991 19.6145 82.3694 17.0608C82.3694 17.0014 82.3694 16.9124 82.3694 16.853C82.3694 16.7936 82.3694 16.7342 82.3694 16.6748C82.3694 16.5857 82.4585 16.556 82.4882 16.5857C82.5179 16.5857 82.5773 16.6154 82.5773 16.6451C82.5773 16.7045 82.607 16.7639 82.607 16.8233C82.8742 18.8424 83.7056 20.624 84.9231 22.1681C86.5562 24.1872 88.9317 25.7313 91.8119 26.6815C95.2267 27.8098 99.3838 28.0474 103.778 27.1863C105.827 26.8003 107.757 26.2064 109.569 25.4641C109.093 25.0483 108.559 24.692 107.995 24.3951C105.976 25.2859 103.66 25.9095 101.136 26.1767C96.1472 26.6815 91.4853 25.6422 88.1597 23.5637C86.8828 22.762 85.7842 21.7821 84.9528 20.7131C83.7947 19.2284 83.1415 17.5062 83.1118 15.6059C83.0821 14.5369 83.2603 13.5273 83.6166 12.5474C83.6166 12.5177 83.6463 12.488 83.6463 12.4584C83.676 12.4287 83.7056 12.399 83.7353 12.399C83.765 12.399 83.7947 12.4584 83.7947 12.5177C83.7947 12.5474 83.765 12.5771 83.765 12.6068C83.5869 13.4085 83.5275 14.2103 83.5869 15.0417C83.7056 16.556 84.2401 17.9813 85.1309 19.2284C85.3091 19.4957 85.5169 19.7629 85.7248 20.0005C88.9317 23.7418 95.3158 25.7016 101.997 24.4545C103.274 24.2466 104.461 23.9497 105.619 23.5934C104.58 23.3558 103.452 23.2964 102.323 23.4449C102.323 23.4449 100.512 23.6825 99.7401 23.8309C99.5916 23.8606 99.3541 23.8903 99.2353 23.8903H99.1759C98.1069 23.9794 94.7813 24.1872 91.2775 22.9401C91.2775 22.9401 87.3579 21.6039 85.6654 18.6643C85.6654 18.6643 85.2794 18.1298 85.8436 17.3578C86.3484 16.7045 86.9422 16.0513 87.5658 15.4871C88.1597 14.9526 89.1989 14.2103 89.1989 14.2103C90.1491 13.5867 91.1587 12.9928 92.2277 12.4584C92.3167 12.4287 92.3761 12.3693 92.4652 12.3396C92.4652 12.3396 92.4652 12.3396 92.4652 12.3099C92.4355 12.2505 92.3761 12.1614 92.3464 12.102C92.2276 11.8348 92.1089 11.5676 92.0198 11.3003C93.8014 10.4392 95.7612 9.75626 97.81 9.22178C105.798 7.23232 113.369 8.62791 117.823 12.5177C119.902 14.3587 121.297 16.7639 121.713 19.6145C121.713 19.6738 121.713 19.7035 121.743 19.7629C121.743 19.8817 121.713 19.8817 121.683 19.8817Z" fill="#0090D4"/>
</svg>
