<svg width="15" height="20" viewBox="0 0 15 20" fill="none" xmlns="http://www.w3.org/2000/svg">
<path d="M15 8.75V20H0V8.75H11.25V5C11.25 4.46615 11.1556 3.97135 10.9668 3.51562C10.778 3.0599 10.5143 2.66602 10.1758 2.33398C9.83724 2.00195 9.4401 1.73828 8.98438 1.54297C8.52865 1.34766 8.03385 1.25 7.5 1.25C6.96615 1.25 6.47135 1.3444 6.01562 1.5332C5.5599 1.72201 5.16602 1.98568 4.83398 2.32422C4.50195 2.66276 4.23828 3.0599 4.04297 3.51562C3.84766 3.97135 3.75 4.46615 3.75 5H2.5C2.5 4.29036 2.62695 3.63281 2.88086 3.02734C3.13477 2.42188 3.48633 1.89128 3.93555 1.43555C4.38477 0.979818 4.91211 0.628255 5.51758 0.380859C6.12305 0.133464 6.78385 0.00651042 7.5 0C8.20964 0 8.86719 0.126953 9.47266 0.380859C10.0781 0.634766 10.6087 0.986328 11.0645 1.43555C11.5202 1.88477 11.8717 2.41211 12.1191 3.01758C12.3665 3.62305 12.4935 4.28385 12.5 5V8.75H15ZM13.75 10H1.25V18.75H13.75V10Z" fill="#140661"/>
</svg>
